<svg xmlns="http://www.w3.org/2000/svg" version="1.1" xmlns:xlink="http://www.w3.org/1999/xlink" xmlns:svgjs="http://svgjs.dev/svgjs" viewBox="0 0 19.03459850254496 13.265623230407233"><g transform="matrix(1,0,0,1,1.319883113577168,9.437740116830065)"><g><path d=" M 1.0170000000000001 0.020999999999999908 L 1.0170000000000001 0.050999999999999934 Q 0.984 0.06299999999999994 0.94725 0.10349999999999993 Q 0.9105 0.1439999999999999 0.879 0.22949999999999993 L 0.5625 1.0859999999999999 Q 0.5505 1.0845 0.537 1.0845 Q 0.5235 1.0845 0.51 1.0845 Q 0.498 1.0845 0.4845 1.0845 Q 0.47100000000000003 1.0845 0.459 1.0859999999999999 L 0.0765 0.1469999999999999 Q 0.0555 0.09299999999999997 0.03 0.07274999999999987 Q 0.0045000000000000005 0.05249999999999999 -0.018000000000000002 0.050999999999999934 L -0.018000000000000002 0.020999999999999908 Q 0.027 0.022499999999999964 0.08775000000000001 0.02400000000000002 Q 0.1485 0.025499999999999856 0.21 0.025499999999999856 Q 0.279 0.025499999999999856 0.33975 0.02400000000000002 Q 0.4005 0.022499999999999964 0.438 0.020999999999999908 L 0.438 0.050999999999999934 Q 0.3645 0.05400000000000005 0.342 0.07574999999999998 Q 0.3195 0.09749999999999992 0.35100000000000003 0.17699999999999994 L 0.624 0.8714999999999999 L 0.5925 0.9089999999999999 L 0.7995 0.351 Q 0.84 0.23849999999999993 0.8415 0.17399999999999993 Q 0.843 0.10949999999999993 0.81 0.08099999999999996 Q 0.777 0.05249999999999999 0.7155 0.050999999999999934 L 0.7155 0.020999999999999908 Q 0.7665000000000001 0.022499999999999964 0.8115 0.02400000000000002 Q 0.8565 0.025499999999999856 0.903 0.025499999999999856 Q 0.936 0.025499999999999856 0.96525 0.02400000000000002 Q 0.9945 0.022499999999999964 1.0170000000000001 0.020999999999999908 M 1.4460827636718752 0.018000000000000016 L 1.810582763671875 0.957 Q 1.8315827636718751 1.011 1.857832763671875 1.03125 Q 1.8840827636718749 1.0514999999999999 1.9050827636718752 1.053 L 1.9050827636718752 1.083 Q 1.8600827636718749 1.08 1.799332763671875 1.07925 Q 1.7385827636718751 1.0785 1.677082763671875 1.0785 Q 1.608082763671875 1.0785 1.546582763671875 1.07925 Q 1.4850827636718749 1.08 1.449082763671875 1.083 L 1.449082763671875 1.053 Q 1.525582763671875 1.05 1.545832763671875 1.02675 Q 1.566082763671875 1.0035 1.536082763671875 0.9269999999999999 L 1.2810827636718751 0.22949999999999993 L 1.308082763671875 0.1904999999999999 L 1.080082763671875 0.7845 Q 1.038082763671875 0.8955 1.038832763671875 0.9524999999999999 Q 1.039582763671875 1.0095 1.0755827636718749 1.02975 Q 1.111582763671875 1.05 1.171582763671875 1.053 L 1.171582763671875 1.083 Q 1.122082763671875 1.08 1.077082763671875 1.07925 Q 1.032082763671875 1.0785 0.985582763671875 1.0785 Q 0.952582763671875 1.0785 0.923332763671875 1.07925 Q 0.894082763671875 1.08 0.871582763671875 1.083 L 0.871582763671875 1.053 Q 0.903082763671875 1.047 0.936082763671875 1.0125 Q 0.969082763671875 0.978 1.000582763671875 0.8955 L 1.342582763671875 0.018000000000000016 Q 1.366582763671875 0.01949999999999985 1.394332763671875 0.01949999999999985 Q 1.4220827636718751 0.01949999999999985 1.4460827636718752 0.018000000000000016 M 1.5510827636718751 0.651 L 1.5510827636718751 0.6809999999999999 L 1.104082763671875 0.6809999999999999 L 1.119082763671875 0.651 L 1.5510827636718751 0.651 M 2.391041748046875 0.020999999999999908 L 2.391041748046875 0.050999999999999934 Q 2.340041748046875 0.05249999999999999 2.3137917480468753 0.062249999999999917 Q 2.287541748046875 0.07199999999999984 2.278541748046875 0.09824999999999995 Q 2.269541748046875 0.12449999999999994 2.269541748046875 0.17999999999999994 L 2.269541748046875 0.942 Q 2.269541748046875 0.9884999999999999 2.276291748046875 1.011 Q 2.283041748046875 1.0334999999999999 2.303291748046875 1.041 Q 2.323541748046875 1.0485 2.364041748046875 1.0485 L 2.437541748046875 1.0485 Q 2.506541748046875 1.0485 2.562791748046875 1.0065 Q 2.6190417480468753 0.9644999999999999 2.657291748046875 0.8887499999999999 Q 2.695541748046875 0.813 2.710541748046875 0.714 L 2.745041748046875 0.714 Q 2.740541748046875 0.7649999999999999 2.740541748046875 0.846 Q 2.740541748046875 0.8805 2.742041748046875 0.9464999999999999 Q 2.743541748046875 1.0125 2.751041748046875 1.083 Q 2.674541748046875 1.08 2.578541748046875 1.07925 Q 2.482541748046875 1.0785 2.4075417480468753 1.0785 Q 2.356541748046875 1.0785 2.272541748046875 1.0785 Q 2.188541748046875 1.0785 2.094041748046875 1.07925 Q 1.999541748046875 1.08 1.918541748046875 1.083 L 1.918541748046875 1.053 Q 1.966541748046875 1.05 1.990541748046875 1.041 Q 2.014541748046875 1.032 2.022791748046875 1.005 Q 2.031041748046875 0.978 2.031041748046875 0.9239999999999999 L 2.031041748046875 0.17999999999999994 Q 2.031041748046875 0.12449999999999994 2.022791748046875 0.09824999999999995 Q 2.014541748046875 0.07199999999999984 1.989791748046875 0.062249999999999917 Q 1.965041748046875 0.05249999999999999 1.918541748046875 0.050999999999999934 L 1.918541748046875 0.020999999999999908 Q 1.956041748046875 0.022499999999999964 2.019791748046875 0.02400000000000002 Q 2.083541748046875 0.025499999999999856 2.155541748046875 0.025499999999999856 Q 2.221541748046875 0.025499999999999856 2.285291748046875 0.02400000000000002 Q 2.349041748046875 0.022499999999999964 2.391041748046875 0.020999999999999908 M 3.3105761718749998 0.020999999999999908 L 3.3105761718749998 0.050999999999999934 Q 3.259576171875 0.05249999999999999 3.233326171875 0.062249999999999917 Q 3.207076171875 0.07199999999999984 3.198076171875 0.09824999999999995 Q 3.189076171875 0.12449999999999994 3.189076171875 0.17999999999999994 L 3.189076171875 0.942 Q 3.189076171875 0.9884999999999999 3.195826171875 1.011 Q 3.202576171875 1.0334999999999999 3.222826171875 1.041 Q 3.243076171875 1.0485 3.283576171875 1.0485 L 3.3570761718749997 1.0485 Q 3.4260761718749997 1.0485 3.482326171875 1.0065 Q 3.538576171875 0.9644999999999999 3.576826171875 0.8887499999999999 Q 3.6150761718749997 0.813 3.630076171875 0.714 L 3.664576171875 0.714 Q 3.6600761718749997 0.7649999999999999 3.6600761718749997 0.846 Q 3.6600761718749997 0.8805 3.6615761718749997 0.9464999999999999 Q 3.663076171875 1.0125 3.670576171875 1.083 Q 3.594076171875 1.08 3.4980761718749998 1.07925 Q 3.4020761718749997 1.0785 3.327076171875 1.0785 Q 3.2760761718749998 1.0785 3.1920761718749997 1.0785 Q 3.108076171875 1.0785 3.013576171875 1.07925 Q 2.919076171875 1.08 2.838076171875 1.083 L 2.838076171875 1.053 Q 2.886076171875 1.05 2.9100761718749997 1.041 Q 2.9340761718749997 1.032 2.942326171875 1.005 Q 2.950576171875 0.978 2.950576171875 0.9239999999999999 L 2.950576171875 0.17999999999999994 Q 2.950576171875 0.12449999999999994 2.942326171875 0.09824999999999995 Q 2.9340761718749997 0.07199999999999984 2.909326171875 0.062249999999999917 Q 2.884576171875 0.05249999999999999 2.838076171875 0.050999999999999934 L 2.838076171875 0.020999999999999908 Q 2.8755761718749997 0.022499999999999964 2.939326171875 0.02400000000000002 Q 3.003076171875 0.025499999999999856 3.0750761718749997 0.025499999999999856 Q 3.141076171875 0.025499999999999856 3.2048261718749997 0.02400000000000002 Q 3.268576171875 0.022499999999999964 3.3105761718749998 0.020999999999999908 M 4.560110595703125 0.020999999999999908 Q 4.554110595703125 0.08699999999999997 4.5518605957031255 0.14849999999999997 Q 4.549610595703125 0.20999999999999996 4.549610595703125 0.243 Q 4.549610595703125 0.2729999999999999 4.5511105957031255 0.29999999999999993 Q 4.552610595703125 0.32699999999999996 4.554110595703125 0.345 L 4.519610595703125 0.345 Q 4.5046105957031255 0.23549999999999993 4.473110595703125 0.17174999999999996 Q 4.441610595703125 0.10799999999999998 4.391360595703125 0.08174999999999999 Q 4.341110595703125 0.05549999999999988 4.273610595703125 0.05549999999999988 L 4.212110595703125 0.05549999999999988 Q 4.167110595703125 0.05549999999999988 4.145360595703125 0.06299999999999994 Q 4.123610595703125 0.07050000000000001 4.116110595703125 0.09224999999999994 Q 4.108610595703125 0.11399999999999999 4.108610595703125 0.16199999999999992 L 4.108610595703125 0.942 Q 4.108610595703125 0.9884999999999999 4.116110595703125 1.011 Q 4.123610595703125 1.0334999999999999 4.145360595703125 1.041 Q 4.167110595703125 1.0485 4.212110595703125 1.0485 L 4.285610595703125 1.0485 Q 4.353110595703125 1.0485 4.404860595703125 1.01925 Q 4.4566105957031255 0.99 4.493360595703125 0.9195 Q 4.530110595703125 0.849 4.549610595703125 0.729 L 4.584110595703125 0.729 Q 4.579610595703125 0.7769999999999999 4.579610595703125 0.855 Q 4.579610595703125 0.8895 4.581110595703125 0.9524999999999999 Q 4.582610595703125 1.0154999999999998 4.590110595703125 1.083 Q 4.513610595703125 1.08 4.417610595703125 1.07925 Q 4.321610595703125 1.0785 4.246610595703125 1.0785 Q 4.195610595703125 1.0785 4.111610595703125 1.0785 Q 4.027610595703125 1.0785 3.933110595703125 1.07925 Q 3.838610595703125 1.08 3.757610595703125 1.083 L 3.757610595703125 1.053 Q 3.805610595703125 1.05 3.829610595703125 1.041 Q 3.853610595703125 1.032 3.861860595703125 1.005 Q 3.870110595703125 0.978 3.870110595703125 0.9239999999999999 L 3.870110595703125 0.17999999999999994 Q 3.870110595703125 0.12449999999999994 3.861860595703125 0.09824999999999995 Q 3.853610595703125 0.07199999999999984 3.828860595703125 0.062249999999999917 Q 3.804110595703125 0.05249999999999999 3.757610595703125 0.050999999999999934 L 3.757610595703125 0.020999999999999908 Q 3.838610595703125 0.022499999999999964 3.933110595703125 0.02400000000000002 Q 4.027610595703125 0.025499999999999856 4.111610595703125 0.025499999999999856 Q 4.195610595703125 0.025499999999999856 4.246610595703125 0.025499999999999856 Q 4.315610595703125 0.025499999999999856 4.403360595703125 0.02475000000000005 Q 4.491110595703125 0.02400000000000002 4.560110595703125 0.020999999999999908 M 4.326110595703125 0.5339999999999999 Q 4.326110595703125 0.5339999999999999 4.326110595703125 0.5489999999999999 Q 4.326110595703125 0.564 4.326110595703125 0.564 L 4.063610595703125 0.564 Q 4.063610595703125 0.564 4.063610595703125 0.5489999999999999 Q 4.063610595703125 0.5339999999999999 4.063610595703125 0.5339999999999999 L 4.326110595703125 0.5339999999999999 M 4.369610595703125 0.33599999999999997 Q 4.3636105957031255 0.4215 4.3643605957031255 0.4664999999999999 Q 4.365110595703125 0.5115 4.365110595703125 0.5489999999999999 Q 4.365110595703125 0.5865 4.366610595703125 0.6315 Q 4.368110595703125 0.6764999999999999 4.374110595703125 0.762 L 4.339610595703125 0.762 Q 4.332110595703125 0.7095 4.311860595703125 0.6645 Q 4.2916105957031245 0.6194999999999999 4.254110595703125 0.59175 Q 4.216610595703125 0.564 4.156610595703125 0.564 L 4.156610595703125 0.5339999999999999 Q 4.216610595703125 0.5339999999999999 4.252610595703125 0.501 Q 4.288610595703125 0.46799999999999997 4.308110595703125 0.4222499999999999 Q 4.327610595703125 0.37649999999999995 4.335110595703125 0.33599999999999997 L 4.369610595703125 0.33599999999999997 M 5.572610595703125 0.01949999999999985 L 5.572610595703125 0.04949999999999988 Q 5.539610595703125 0.06299999999999994 5.505110595703124 0.1027499999999999 Q 5.470610595703125 0.14249999999999996 5.428610595703125 0.22349999999999992 L 5.145110595703125 0.7845 L 5.074610595703125 0.7845 L 4.723610595703125 0.1349999999999999 Q 4.696610595703125 0.08399999999999996 4.674860595703125 0.0674999999999999 Q 4.653110595703125 0.050999999999999934 4.636610595703124 0.050999999999999934 L 4.636610595703124 0.01949999999999985 Q 4.677110595703125 0.02400000000000002 4.719860595703125 0.025499999999999856 Q 4.762610595703125 0.026999999999999913 4.813610595703125 0.026999999999999913 Q 4.879610595703125 0.026999999999999913 4.956110595703125 0.02475000000000005 Q 5.032610595703125 0.022499999999999964 5.095610595703125 0.01949999999999985 L 5.095610595703125 0.050999999999999934 Q 5.058110595703125 0.050999999999999934 5.028110595703125 0.05699999999999994 Q 4.998110595703125 0.06299999999999994 4.986110595703125 0.07874999999999988 Q 4.974110595703125 0.09449999999999992 4.992110595703124 0.1289999999999999 L 5.2291105957031245 0.585 L 5.1826105957031245 0.645 L 5.337110595703125 0.3344999999999999 Q 5.3926105957031245 0.22649999999999992 5.396360595703125 0.16499999999999992 Q 5.400110595703125 0.10349999999999993 5.366360595703124 0.07725000000000004 Q 5.332610595703125 0.050999999999999934 5.271110595703124 0.04949999999999988 L 5.271110595703124 0.01949999999999985 Q 5.3221105957031245 0.020999999999999908 5.367110595703124 0.022499999999999964 Q 5.412110595703124 0.02400000000000002 5.458610595703124 0.02400000000000002 Q 5.491610595703125 0.02400000000000002 5.520860595703125 0.022499999999999964 Q 5.550110595703124 0.020999999999999908 5.572610595703125 0.01949999999999985 M 5.2516105957031245 0.5475 L 5.2516105957031245 0.9239999999999999 Q 5.2516105957031245 0.978 5.259860595703125 1.005 Q 5.268110595703124 1.032 5.292110595703125 1.041 Q 5.316110595703124 1.05 5.364110595703124 1.053 L 5.364110595703124 1.083 Q 5.323610595703125 1.08 5.259860595703125 1.07925 Q 5.196110595703125 1.0785 5.1331105957031244 1.0785 Q 5.062610595703124 1.0785 4.999610595703125 1.07925 Q 4.936610595703125 1.08 4.9006105957031245 1.083 L 4.9006105957031245 1.053 Q 4.948610595703125 1.05 4.972610595703125 1.041 Q 4.996610595703125 1.032 5.004860595703125 1.005 Q 5.013110595703124 0.978 5.013110595703124 0.9239999999999999 L 5.013110595703124 0.6164999999999999 L 5.143610595703125 0.7095 L 5.2516105957031245 0.5475 M 6.60454541015625 1.083 L 6.60454541015625 1.053 Q 6.65254541015625 1.05 6.67654541015625 1.041 Q 6.70054541015625 1.032 6.70879541015625 1.005 Q 6.71704541015625 0.978 6.71704541015625 0.9239999999999999 L 6.71704541015625 0.17999999999999994 Q 6.71704541015625 0.12449999999999994 6.70879541015625 0.09824999999999995 Q 6.70054541015625 0.07199999999999984 6.67579541015625 0.062249999999999917 Q 6.65104541015625 0.05249999999999999 6.60454541015625 0.050999999999999934 L 6.60454541015625 0.020999999999999908 Q 6.64504541015625 0.022499999999999964 6.71029541015625 0.02400000000000002 Q 6.77554541015625 0.025499999999999856 6.84004541015625 0.025499999999999856 Q 6.90904541015625 0.025499999999999856 6.96979541015625 0.02400000000000002 Q 7.03054541015625 0.022499999999999964 7.06804541015625 0.020999999999999908 L 7.06804541015625 0.050999999999999934 Q 7.02004541015625 0.05249999999999999 6.99529541015625 0.062249999999999917 Q 6.97054541015625 0.07199999999999984 6.96304541015625 0.09824999999999995 Q 6.95554541015625 0.12449999999999994 6.95554541015625 0.17999999999999994 L 6.95554541015625 0.9239999999999999 Q 6.95554541015625 0.978 6.96379541015625 1.005 Q 6.97204541015625 1.032 6.99604541015625 1.041 Q 7.02004541015625 1.05 7.06804541015625 1.053 L 7.06804541015625 1.083 Q 7.03054541015625 1.08 6.96979541015625 1.07925 Q 6.90904541015625 1.0785 6.84004541015625 1.0785 Q 6.77554541015625 1.0785 6.71029541015625 1.07925 Q 6.64504541015625 1.08 6.60454541015625 1.083 M 5.96854541015625 1.083 L 5.96854541015625 1.053 Q 6.01654541015625 1.05 6.04054541015625 1.041 Q 6.06454541015625 1.032 6.07279541015625 1.005 Q 6.08104541015625 0.978 6.08104541015625 0.9239999999999999 L 6.08104541015625 0.17999999999999994 Q 6.08104541015625 0.12449999999999994 6.07279541015625 0.09824999999999995 Q 6.06454541015625 0.07199999999999984 6.03979541015625 0.062249999999999917 Q 6.01504541015625 0.05249999999999999 5.96854541015625 0.050999999999999934 L 5.96854541015625 0.020999999999999908 Q 6.00754541015625 0.022499999999999964 6.0697954101562495 0.02400000000000002 Q 6.13204541015625 0.025499999999999856 6.20554541015625 0.025499999999999856 Q 6.26854541015625 0.025499999999999856 6.3300454101562496 0.02400000000000002 Q 6.39154541015625 0.022499999999999964 6.43204541015625 0.020999999999999908 L 6.43204541015625 0.050999999999999934 Q 6.38404541015625 0.05249999999999999 6.35929541015625 0.062249999999999917 Q 6.33454541015625 0.07199999999999984 6.32704541015625 0.09824999999999995 Q 6.31954541015625 0.12449999999999994 6.31954541015625 0.17999999999999994 L 6.31954541015625 0.9239999999999999 Q 6.31954541015625 0.978 6.32779541015625 1.005 Q 6.33604541015625 1.032 6.36004541015625 1.041 Q 6.38404541015625 1.05 6.43204541015625 1.053 L 6.43204541015625 1.083 Q 6.39154541015625 1.08 6.3300454101562496 1.07925 Q 6.26854541015625 1.0785 6.20554541015625 1.0785 Q 6.13204541015625 1.0785 6.0697954101562495 1.07925 Q 6.00754541015625 1.08 5.96854541015625 1.083 M 6.22204541015625 0.564 L 6.22204541015625 0.5339999999999999 L 6.81454541015625 0.5339999999999999 L 6.81454541015625 0.564 L 6.22204541015625 0.564 M 7.6725270996093755 0.018000000000000016 L 8.037027099609375 0.957 Q 8.058027099609376 1.011 8.084277099609375 1.03125 Q 8.110527099609374 1.0514999999999999 8.131527099609375 1.053 L 8.131527099609375 1.083 Q 8.086527099609375 1.08 8.025777099609375 1.07925 Q 7.965027099609375 1.0785 7.903527099609375 1.0785 Q 7.8345270996093745 1.0785 7.773027099609375 1.07925 Q 7.711527099609375 1.08 7.675527099609375 1.083 L 7.675527099609375 1.053 Q 7.752027099609375 1.05 7.772277099609375 1.02675 Q 7.792527099609375 1.0035 7.762527099609375 0.9269999999999999 L 7.507527099609375 0.22949999999999993 L 7.534527099609375 0.1904999999999999 L 7.306527099609375 0.7845 Q 7.264527099609375 0.8955 7.265277099609375 0.9524999999999999 Q 7.266027099609375 1.0095 7.302027099609375 1.02975 Q 7.338027099609375 1.05 7.398027099609375 1.053 L 7.398027099609375 1.083 Q 7.348527099609375 1.08 7.303527099609375 1.07925 Q 7.258527099609375 1.0785 7.212027099609375 1.0785 Q 7.1790270996093755 1.0785 7.149777099609375 1.07925 Q 7.120527099609375 1.08 7.098027099609375 1.083 L 7.098027099609375 1.053 Q 7.129527099609375 1.047 7.162527099609375 1.0125 Q 7.195527099609375 0.978 7.227027099609375 0.8955 L 7.569027099609375 0.018000000000000016 Q 7.593027099609375 0.01949999999999985 7.620777099609375 0.01949999999999985 Q 7.648527099609375 0.01949999999999985 7.6725270996093755 0.018000000000000016 M 7.777527099609375 0.651 L 7.777527099609375 0.6809999999999999 L 7.330527099609375 0.6809999999999999 L 7.345527099609375 0.651 L 7.777527099609375 0.651 M 9.133486083984375 0.020999999999999908 L 9.133486083984375 0.050999999999999934 Q 9.085486083984375 0.05699999999999994 9.061486083984374 0.07574999999999998 Q 9.037486083984374 0.09449999999999992 9.029236083984374 0.1349999999999999 Q 9.020986083984374 0.1755 9.020986083984374 0.249 L 9.020986083984374 1.0859999999999999 Q 9.002986083984375 1.0845 8.984236083984374 1.0845 Q 8.965486083984374 1.0845 8.944486083984375 1.0859999999999999 L 8.293486083984375 0.2609999999999999 L 8.293486083984375 0.837 Q 8.293486083984375 0.9195 8.302486083984375 0.96375 Q 8.311486083984374 1.008 8.342236083984375 1.02675 Q 8.372986083984374 1.0454999999999999 8.438986083984375 1.053 L 8.438986083984375 1.083 Q 8.410486083984374 1.08 8.363986083984374 1.07925 Q 8.317486083984374 1.0785 8.276986083984374 1.0785 Q 8.242486083984375 1.0785 8.206486083984375 1.07925 Q 8.170486083984374 1.08 8.146486083984374 1.083 L 8.146486083984374 1.053 Q 8.194486083984375 1.0454999999999999 8.218486083984374 1.0274999999999999 Q 8.242486083984375 1.0095 8.250736083984375 0.9682499999999999 Q 8.258986083984373 0.9269999999999999 8.258986083984373 0.855 L 8.258986083984373 0.17999999999999994 Q 8.258986083984373 0.12449999999999994 8.250736083984375 0.09824999999999995 Q 8.242486083984375 0.07199999999999984 8.217736083984374 0.062249999999999917 Q 8.192986083984374 0.05249999999999999 8.146486083984374 0.050999999999999934 L 8.146486083984374 0.020999999999999908 Q 8.170486083984374 0.022499999999999964 8.206486083984375 0.02400000000000002 Q 8.242486083984375 0.025499999999999856 8.276986083984374 0.025499999999999856 Q 8.312986083984374 0.025499999999999856 8.345986083984375 0.02400000000000002 Q 8.378986083984374 0.022499999999999964 8.405986083984374 0.020999999999999908 L 8.986486083984374 0.7364999999999999 L 8.986486083984374 0.2669999999999999 Q 8.986486083984374 0.1845 8.977486083984374 0.14024999999999999 Q 8.968486083984374 0.09599999999999997 8.937736083984374 0.07650000000000001 Q 8.906986083984375 0.05699999999999994 8.840986083984374 0.050999999999999934 L 8.840986083984374 0.020999999999999908 Q 8.869486083984373 0.022499999999999964 8.915986083984375 0.02400000000000002 Q 8.962486083984373 0.025499999999999856 9.002986083984375 0.025499999999999856 Q 9.038986083984375 0.025499999999999856 9.074236083984374 0.02400000000000002 Q 9.109486083984374 0.022499999999999964 9.133486083984375 0.020999999999999908 M 9.69446337890625 0.020999999999999908 Q 9.98996337890625 0.020999999999999908 10.13396337890625 0.1552499999999999 Q 10.27796337890625 0.2895 10.27796337890625 0.5399999999999999 Q 10.27796337890625 0.7035 10.20746337890625 0.82575 Q 10.13696337890625 0.948 10.002713378906249 1.0154999999999998 Q 9.868463378906249 1.083 9.680963378906249 1.083 Q 9.64496337890625 1.083 9.578213378906248 1.0807499999999999 Q 9.51146337890625 1.0785 9.46196337890625 1.0785 Q 9.395963378906249 1.0785 9.33221337890625 1.07925 Q 9.26846337890625 1.08 9.23096337890625 1.083 L 9.23096337890625 1.053 Q 9.27896337890625 1.05 9.302963378906249 1.041 Q 9.32696337890625 1.032 9.33521337890625 1.005 Q 9.34346337890625 0.978 9.34346337890625 0.9239999999999999 L 9.34346337890625 0.17999999999999994 Q 9.34346337890625 0.12449999999999994 9.33521337890625 0.09824999999999995 Q 9.32696337890625 0.07199999999999984 9.302213378906249 0.062249999999999917 Q 9.27746337890625 0.05249999999999999 9.23096337890625 0.050999999999999934 L 9.23096337890625 0.020999999999999908 Q 9.26846337890625 0.022499999999999964 9.33221337890625 0.02475000000000005 Q 9.395963378906249 0.026999999999999913 9.45896337890625 0.025499999999999856 Q 9.51296337890625 0.02400000000000002 9.581213378906249 0.022499999999999964 Q 9.64946337890625 0.020999999999999908 9.69446337890625 0.020999999999999908 M 9.69296337890625 0.04800000000000004 Q 9.62396337890625 0.04800000000000004 9.60296337890625 0.0734999999999999 Q 9.581963378906249 0.09899999999999998 9.581963378906249 0.17699999999999994 L 9.581963378906249 0.9269999999999999 Q 9.581963378906249 1.005 9.60371337890625 1.0305 Q 9.62546337890625 1.056 9.69446337890625 1.056 Q 9.820463378906249 1.056 9.89321337890625 0.9967499999999999 Q 9.965963378906249 0.9375 9.99746337890625 0.8234999999999999 Q 10.02896337890625 0.7095 10.02896337890625 0.5459999999999999 Q 10.02896337890625 0.29399999999999993 9.95096337890625 0.17099999999999993 Q 9.872963378906249 0.04800000000000004 9.69296337890625 0.04800000000000004 M 11.230442138671874 0.01949999999999985 L 11.230442138671874 0.04949999999999988 Q 11.197442138671875 0.06299999999999994 11.162942138671875 0.1027499999999999 Q 11.128442138671874 0.14249999999999996 11.086442138671874 0.22349999999999992 L 10.802942138671874 0.7845 L 10.732442138671875 0.7845 L 10.381442138671874 0.1349999999999999 Q 10.354442138671875 0.08399999999999996 10.332692138671874 0.0674999999999999 Q 10.310942138671875 0.050999999999999934 10.294442138671874 0.050999999999999934 L 10.294442138671874 0.01949999999999985 Q 10.334942138671874 0.02400000000000002 10.377692138671874 0.025499999999999856 Q 10.420442138671875 0.026999999999999913 10.471442138671874 0.026999999999999913 Q 10.537442138671874 0.026999999999999913 10.613942138671874 0.02475000000000005 Q 10.690442138671875 0.022499999999999964 10.753442138671874 0.01949999999999985 L 10.753442138671874 0.050999999999999934 Q 10.715942138671874 0.050999999999999934 10.685942138671875 0.05699999999999994 Q 10.655942138671875 0.06299999999999994 10.643942138671875 0.07874999999999988 Q 10.631942138671874 0.09449999999999992 10.649942138671875 0.1289999999999999 L 10.886942138671875 0.585 L 10.840442138671875 0.645 L 10.994942138671874 0.3344999999999999 Q 11.050442138671874 0.22649999999999992 11.054192138671874 0.16499999999999992 Q 11.057942138671875 0.10349999999999993 11.024192138671875 0.07725000000000004 Q 10.990442138671874 0.050999999999999934 10.928942138671875 0.04949999999999988 L 10.928942138671875 0.01949999999999985 Q 10.979942138671875 0.020999999999999908 11.024942138671875 0.022499999999999964 Q 11.069942138671875 0.02400000000000002 11.116442138671875 0.02400000000000002 Q 11.149442138671875 0.02400000000000002 11.178692138671874 0.022499999999999964 Q 11.207942138671875 0.020999999999999908 11.230442138671874 0.01949999999999985 M 10.909442138671874 0.5475 L 10.909442138671874 0.9239999999999999 Q 10.909442138671874 0.978 10.917692138671875 1.005 Q 10.925942138671875 1.032 10.949942138671874 1.041 Q 10.973942138671875 1.05 11.021942138671875 1.053 L 11.021942138671875 1.083 Q 10.981442138671875 1.08 10.917692138671875 1.07925 Q 10.853942138671874 1.0785 10.790942138671875 1.0785 Q 10.720442138671874 1.0785 10.657442138671874 1.07925 Q 10.594442138671875 1.08 10.558442138671875 1.083 L 10.558442138671875 1.053 Q 10.606442138671875 1.05 10.630442138671874 1.041 Q 10.654442138671875 1.032 10.662692138671874 1.005 Q 10.670942138671874 0.978 10.670942138671874 0.9239999999999999 L 10.670942138671874 0.6164999999999999 L 10.801442138671874 0.7095 L 10.909442138671874 0.5475 M 12.583420898437499 0.020999999999999908 L 12.583420898437499 0.050999999999999934 Q 12.535420898437499 0.05249999999999999 12.5114208984375 0.062249999999999917 Q 12.487420898437499 0.07199999999999984 12.4791708984375 0.09824999999999995 Q 12.4709208984375 0.12449999999999994 12.4709208984375 0.17999999999999994 L 12.4709208984375 0.9239999999999999 Q 12.4709208984375 0.978 12.4791708984375 1.005 Q 12.487420898437499 1.032 12.5114208984375 1.041 Q 12.535420898437499 1.05 12.583420898437499 1.053 L 12.583420898437499 1.083 Q 12.541420898437499 1.08 12.4776708984375 1.07925 Q 12.4139208984375 1.0785 12.347920898437499 1.0785 Q 12.2759208984375 1.0785 12.212920898437499 1.07925 Q 12.1499208984375 1.08 12.110920898437499 1.083 L 12.110920898437499 1.053 Q 12.161920898437499 1.05 12.1881708984375 1.041 Q 12.2144208984375 1.032 12.2234208984375 1.005 Q 12.2324208984375 0.978 12.2324208984375 0.9239999999999999 L 12.2324208984375 0.11249999999999993 L 12.2429208984375 0.11249999999999993 L 11.8709208984375 1.0845 L 11.8469208984375 1.0845 L 11.4419208984375 0.11849999999999994 L 11.4419208984375 0.837 Q 11.4419208984375 0.9195 11.4509208984375 0.96375 Q 11.459920898437499 1.008 11.4906708984375 1.02675 Q 11.5214208984375 1.0454999999999999 11.5874208984375 1.053 L 11.5874208984375 1.083 Q 11.5589208984375 1.08 11.5124208984375 1.07925 Q 11.4659208984375 1.0785 11.4254208984375 1.0785 Q 11.3909208984375 1.0785 11.3549208984375 1.07925 Q 11.318920898437499 1.08 11.2949208984375 1.083 L 11.2949208984375 1.053 Q 11.3429208984375 1.0454999999999999 11.366920898437499 1.0274999999999999 Q 11.3909208984375 1.0095 11.3991708984375 0.9682499999999999 Q 11.407420898437499 0.9269999999999999 11.407420898437499 0.855 L 11.407420898437499 0.17999999999999994 Q 11.407420898437499 0.12449999999999994 11.3991708984375 0.09824999999999995 Q 11.3909208984375 0.07199999999999984 11.366170898437499 0.062249999999999917 Q 11.3414208984375 0.05249999999999999 11.2949208984375 0.050999999999999934 L 11.2949208984375 0.020999999999999908 Q 11.318920898437499 0.022499999999999964 11.3549208984375 0.02400000000000002 Q 11.3909208984375 0.025499999999999856 11.4254208984375 0.025499999999999856 Q 11.4899208984375 0.025499999999999856 11.552170898437499 0.02400000000000002 Q 11.6144208984375 0.022499999999999964 11.6624208984375 0.020999999999999908 L 11.977420898437499 0.7815 L 11.9399208984375 0.816 L 12.2414208984375 0.025499999999999856 Q 12.2669208984375 0.025499999999999856 12.2939208984375 0.025499999999999856 Q 12.3209208984375 0.025499999999999856 12.347920898437499 0.025499999999999856 Q 12.4139208984375 0.025499999999999856 12.4776708984375 0.02400000000000002 Q 12.541420898437499 0.022499999999999964 12.583420898437499 0.020999999999999908 M 13.187923828125 0.018000000000000016 L 13.552423828124999 0.957 Q 13.573423828125 1.011 13.599673828124999 1.03125 Q 13.625923828125 1.0514999999999999 13.646923828125 1.053 L 13.646923828125 1.083 Q 13.601923828124999 1.08 13.541173828125 1.07925 Q 13.480423828125 1.0785 13.418923828125 1.0785 Q 13.349923828125 1.0785 13.288423828125 1.07925 Q 13.226923828124999 1.08 13.190923828125 1.083 L 13.190923828125 1.053 Q 13.267423828125 1.05 13.287673828125 1.02675 Q 13.307923828125 1.0035 13.277923828125 0.9269999999999999 L 13.022923828125 0.22949999999999993 L 13.049923828125 0.1904999999999999 L 12.821923828125 0.7845 Q 12.779923828125 0.8955 12.780673828125 0.9524999999999999 Q 12.781423828125 1.0095 12.817423828125 1.02975 Q 12.853423828124999 1.05 12.913423828125 1.053 L 12.913423828125 1.083 Q 12.863923828125 1.08 12.818923828125 1.07925 Q 12.773923828125 1.0785 12.727423828125 1.0785 Q 12.694423828125 1.0785 12.665173828124999 1.07925 Q 12.635923828125 1.08 12.613423828124999 1.083 L 12.613423828124999 1.053 Q 12.644923828125 1.047 12.677923828125 1.0125 Q 12.710923828124999 0.978 12.742423828125 0.8955 L 13.084423828124999 0.018000000000000016 Q 13.108423828125 0.01949999999999985 13.136173828125 0.01949999999999985 Q 13.163923828125 0.01949999999999985 13.187923828125 0.018000000000000016 M 13.292923828125 0.651 L 13.292923828125 0.6809999999999999 L 12.845923828125 0.6809999999999999 L 12.860923828125 0.651 L 13.292923828125 0.651 M 14.6488828125 0.020999999999999908 L 14.6488828125 0.050999999999999934 Q 14.6008828125 0.05699999999999994 14.5768828125 0.07574999999999998 Q 14.5528828125 0.09449999999999992 14.5446328125 0.1349999999999999 Q 14.5363828125 0.1755 14.5363828125 0.249 L 14.5363828125 1.0859999999999999 Q 14.5183828125 1.0845 14.4996328125 1.0845 Q 14.480882812499999 1.0845 14.4598828125 1.0859999999999999 L 13.8088828125 0.2609999999999999 L 13.8088828125 0.837 Q 13.8088828125 0.9195 13.8178828125 0.96375 Q 13.8268828125 1.008 13.8576328125 1.02675 Q 13.8883828125 1.0454999999999999 13.9543828125 1.053 L 13.9543828125 1.083 Q 13.9258828125 1.08 13.8793828125 1.07925 Q 13.8328828125 1.0785 13.7923828125 1.0785 Q 13.7578828125 1.0785 13.7218828125 1.07925 Q 13.6858828125 1.08 13.6618828125 1.083 L 13.6618828125 1.053 Q 13.7098828125 1.0454999999999999 13.7338828125 1.0274999999999999 Q 13.7578828125 1.0095 13.7661328125 0.9682499999999999 Q 13.774382812499999 0.9269999999999999 13.774382812499999 0.855 L 13.774382812499999 0.17999999999999994 Q 13.774382812499999 0.12449999999999994 13.7661328125 0.09824999999999995 Q 13.7578828125 0.07199999999999984 13.7331328125 0.062249999999999917 Q 13.7083828125 0.05249999999999999 13.6618828125 0.050999999999999934 L 13.6618828125 0.020999999999999908 Q 13.6858828125 0.022499999999999964 13.7218828125 0.02400000000000002 Q 13.7578828125 0.025499999999999856 13.7923828125 0.025499999999999856 Q 13.8283828125 0.025499999999999856 13.8613828125 0.02400000000000002 Q 13.8943828125 0.022499999999999964 13.9213828125 0.020999999999999908 L 14.5018828125 0.7364999999999999 L 14.5018828125 0.2669999999999999 Q 14.5018828125 0.1845 14.4928828125 0.14024999999999999 Q 14.4838828125 0.09599999999999997 14.4531328125 0.07650000000000001 Q 14.4223828125 0.05699999999999994 14.3563828125 0.050999999999999934 L 14.3563828125 0.020999999999999908 Q 14.384882812499999 0.022499999999999964 14.4313828125 0.02400000000000002 Q 14.477882812499999 0.025499999999999856 14.5183828125 0.025499999999999856 Q 14.5543828125 0.025499999999999856 14.5896328125 0.02400000000000002 Q 14.6248828125 0.022499999999999964 14.6488828125 0.020999999999999908 M 15.54281689453125 0.018000000000000016 Q 15.60131689453125 0.018000000000000016 15.63731689453125 0.026249999999999885 Q 15.67331689453125 0.034499999999999975 15.69881689453125 0.04949999999999988 Q 15.73331689453125 0.06599999999999984 15.76181689453125 0.09599999999999997 Q 15.79031689453125 0.1259999999999999 15.79031689453125 0.17099999999999993 Q 15.79031689453125 0.21599999999999997 15.75581689453125 0.243 Q 15.72131689453125 0.2699999999999999 15.67481689453125 0.2699999999999999 Q 15.62981689453125 0.2699999999999999 15.59756689453125 0.24749999999999994 Q 15.56531689453125 0.22499999999999998 15.56531689453125 0.17699999999999994 Q 15.56531689453125 0.13949999999999996 15.59231689453125 0.1087499999999999 Q 15.61931689453125 0.07799999999999985 15.66131689453125 0.07050000000000001 Q 15.65081689453125 0.058499999999999996 15.62306689453125 0.050999999999999934 Q 15.59531689453125 0.04349999999999987 15.56231689453125 0.04349999999999987 Q 15.48431689453125 0.04349999999999987 15.42956689453125 0.09224999999999994 Q 15.37481689453125 0.1409999999999999 15.37481689453125 0.24 Q 15.37481689453125 0.27449999999999997 15.38681689453125 0.3135 Q 15.398816894531251 0.3524999999999999 15.43331689453125 0.3929999999999999 Q 15.45881689453125 0.3869999999999999 15.48056689453125 0.3839999999999999 Q 15.50231689453125 0.3809999999999999 15.51731689453125 0.3809999999999999 Q 15.57281689453125 0.3809999999999999 15.57281689453125 0.4215 Q 15.57281689453125 0.43499999999999994 15.56081689453125 0.44399999999999995 Q 15.54881689453125 0.45299999999999996 15.53081689453125 0.45299999999999996 Q 15.50531689453125 0.45299999999999996 15.47831689453125 0.43875 Q 15.45131689453125 0.4245 15.43481689453125 0.4139999999999999 Q 15.36431689453125 0.44999999999999996 15.32006689453125 0.50625 Q 15.27581689453125 0.5625 15.27581689453125 0.657 Q 15.27581689453125 0.756 15.32981689453125 0.81975 Q 15.38381689453125 0.8835 15.48206689453125 0.91575 Q 15.58031689453125 0.948 15.71381689453125 0.948 Q 15.78881689453125 0.948 15.86231689453125 0.9315 Q 15.93581689453125 0.9149999999999999 15.99506689453125 0.8819999999999999 Q 16.05431689453125 0.849 16.09031689453125 0.8002499999999999 Q 16.12631689453125 0.7515 16.12631689453125 0.6869999999999999 Q 16.12631689453125 0.663 16.11956689453125 0.62625 Q 16.11281689453125 0.5894999999999999 16.08731689453125 0.55275 Q 16.06181689453125 0.5159999999999999 16.00331689453125 0.492 L 16.01381689453125 0.4784999999999999 Q 16.09481689453125 0.504 16.13681689453125 0.5744999999999999 Q 16.17881689453125 0.645 16.17881689453125 0.7364999999999999 Q 16.17881689453125 0.8414999999999999 16.11431689453125 0.92475 Q 16.04981689453125 1.008 15.93356689453125 1.056 Q 15.81731689453125 1.1039999999999999 15.66131689453125 1.1039999999999999 Q 15.49631689453125 1.1039999999999999 15.37181689453125 1.059 Q 15.24731689453125 1.014 15.17831689453125 0.9299999999999999 Q 15.10931689453125 0.846 15.10931689453125 0.7304999999999999 Q 15.10931689453125 0.6465 15.14456689453125 0.5872499999999999 Q 15.17981689453125 0.5279999999999999 15.23081689453125 0.4897499999999999 Q 15.28181689453125 0.4514999999999999 15.33281689453125 0.4305 Q 15.38381689453125 0.4095 15.41381689453125 0.4019999999999999 Q 15.34331689453125 0.37349999999999994 15.29381689453125 0.32775 Q 15.24431689453125 0.2819999999999999 15.24431689453125 0.21299999999999997 Q 15.24431689453125 0.16499999999999992 15.26981689453125 0.12824999999999998 Q 15.29531689453125 0.09149999999999991 15.33806689453125 0.0674999999999999 Q 15.38081689453125 0.04349999999999987 15.43406689453125 0.030749999999999833 Q 15.48731689453125 0.018000000000000016 15.54281689453125 0.018000000000000016 M 16.13231689453125 0 Q 16.23881689453125 0 16.30481689453125 0.05549999999999988 Q 16.37081689453125 0.11099999999999999 16.37081689453125 0.2114999999999999 Q 16.37081689453125 0.32699999999999996 16.28906689453125 0.38774999999999993 Q 16.20731689453125 0.4484999999999999 16.06631689453125 0.4784999999999999 Q 16.04531689453125 0.486 16.01381689453125 0.4957499999999999 Q 15.98231689453125 0.5055 15.94931689453125 0.5145 Q 15.91631689453125 0.5235 15.88556689453125 0.5325 Q 15.85481689453125 0.5415 15.83231689453125 0.5475 Q 15.71531689453125 0.573 15.65231689453125 0.60525 Q 15.58931689453125 0.6375 15.58931689453125 0.693 Q 15.58931689453125 0.7304999999999999 15.61406689453125 0.7575 Q 15.63881689453125 0.7845 15.67631689453125 0.7994999999999999 Q 15.71381689453125 0.8145 15.75131689453125 0.8145 Q 15.76631689453125 0.8145 15.78506689453125 0.81075 Q 15.80381689453125 0.8069999999999999 15.81131689453125 0.7994999999999999 Q 15.773816894531251 0.7875 15.75506689453125 0.76125 Q 15.73631689453125 0.7349999999999999 15.73631689453125 0.7004999999999999 Q 15.73631689453125 0.6525 15.77081689453125 0.627 Q 15.80531689453125 0.6014999999999999 15.85631689453125 0.6014999999999999 Q 15.91031689453125 0.6014999999999999 15.94106689453125 0.6299999999999999 Q 15.97181689453125 0.6585 15.97181689453125 0.7035 Q 15.97181689453125 0.75 15.94331689453125 0.7807499999999999 Q 15.91481689453125 0.8114999999999999 15.86681689453125 0.82575 Q 15.81881689453125 0.84 15.75881689453125 0.84 Q 15.70031689453125 0.84 15.64856689453125 0.819 Q 15.59681689453125 0.7979999999999999 15.56606689453125 0.75525 Q 15.53531689453125 0.7124999999999999 15.53531689453125 0.6479999999999999 Q 15.53531689453125 0.5309999999999999 15.62531689453125 0.4664999999999999 Q 15.71531689453125 0.4019999999999999 15.87131689453125 0.372 Q 15.90281689453125 0.36449999999999994 15.94106689453125 0.3547499999999999 Q 15.97931689453125 0.345 16.01981689453125 0.3344999999999999 Q 16.06031689453125 0.32399999999999995 16.09481689453125 0.31199999999999994 Q 16.20281689453125 0.2849999999999999 16.26206689453125 0.2519999999999999 Q 16.32131689453125 0.21899999999999997 16.32131689453125 0.16349999999999998 Q 16.32131689453125 0.10199999999999998 16.268066894531252 0.0645 Q 16.21481689453125 0.026999999999999913 16.15181689453125 0.026999999999999913 Q 16.13831689453125 0.026999999999999913 16.12706689453125 0.02849999999999997 Q 16.11581689453125 0.030000000000000027 16.10831689453125 0.034499999999999975 Q 16.14581689453125 0.04800000000000004 16.16381689453125 0.07499999999999996 Q 16.18181689453125 0.10199999999999998 16.18181689453125 0.1289999999999999 Q 16.18181689453125 0.1755 16.14731689453125 0.20024999999999993 Q 16.11281689453125 0.22499999999999998 16.06181689453125 0.22499999999999998 Q 16.01081689453125 0.22499999999999998 15.97781689453125 0.19874999999999998 Q 15.94481689453125 0.1725 15.94481689453125 0.1259999999999999 Q 15.94481689453125 0.08549999999999991 15.96806689453125 0.05774999999999997 Q 15.99131689453125 0.030000000000000027 16.03331689453125 0.014999999999999902 Q 16.07531689453125 0 16.13231689453125 0 M 3.9855285644531255 1.425 L 3.9855285644531255 1.455 Q 3.9375285644531255 1.4565000000000001 3.9135285644531255 1.46625 Q 3.8895285644531254 1.476 3.881278564453125 1.50225 Q 3.8730285644531253 1.5285000000000002 3.8730285644531253 1.584 L 3.8730285644531253 2.3280000000000003 Q 3.8730285644531253 2.382 3.881278564453125 2.4090000000000003 Q 3.8895285644531254 2.436 3.9135285644531255 2.4450000000000003 Q 3.9375285644531255 2.454 3.9855285644531255 2.4570000000000003 L 3.9855285644531255 2.487 Q 3.9435285644531253 2.484 3.879778564453125 2.48325 Q 3.8160285644531253 2.4825 3.7500285644531255 2.4825 Q 3.6780285644531254 2.4825 3.6150285644531253 2.48325 Q 3.552028564453125 2.484 3.5130285644531254 2.487 L 3.5130285644531254 2.4570000000000003 Q 3.5640285644531255 2.454 3.590278564453125 2.4450000000000003 Q 3.6165285644531253 2.436 3.625528564453125 2.4090000000000003 Q 3.6345285644531256 2.382 3.6345285644531256 2.3280000000000003 L 3.6345285644531256 1.5165000000000002 L 3.645028564453125 1.5165000000000002 L 3.273028564453125 2.4885 L 3.249028564453125 2.4885 L 2.8440285644531254 1.5225 L 2.8440285644531254 2.241 Q 2.8440285644531254 2.3235 2.8530285644531252 2.36775 Q 2.862028564453125 2.412 2.8927785644531254 2.43075 Q 2.9235285644531253 2.4495 2.9895285644531255 2.4570000000000003 L 2.9895285644531255 2.487 Q 2.9610285644531253 2.484 2.9145285644531254 2.48325 Q 2.8680285644531254 2.4825 2.827528564453125 2.4825 Q 2.793028564453125 2.4825 2.757028564453125 2.48325 Q 2.721028564453125 2.484 2.6970285644531256 2.487 L 2.6970285644531256 2.4570000000000003 Q 2.745028564453125 2.4495 2.769028564453125 2.4315 Q 2.793028564453125 2.4135 2.8012785644531255 2.37225 Q 2.8095285644531254 2.331 2.8095285644531254 2.259 L 2.8095285644531254 1.584 Q 2.8095285644531254 1.5285000000000002 2.8012785644531255 1.50225 Q 2.793028564453125 1.476 2.768278564453125 1.46625 Q 2.7435285644531255 1.4565000000000001 2.6970285644531256 1.455 L 2.6970285644531256 1.425 Q 2.721028564453125 1.4265 2.757028564453125 1.4280000000000002 Q 2.793028564453125 1.4295 2.827528564453125 1.4295 Q 2.8920285644531254 1.4295 2.9542785644531255 1.4280000000000002 Q 3.0165285644531252 1.4265 3.0645285644531253 1.425 L 3.379528564453125 2.1855 L 3.342028564453125 2.22 L 3.6435285644531255 1.4295 Q 3.669028564453125 1.4295 3.696028564453125 1.4295 Q 3.7230285644531254 1.4295 3.7500285644531255 1.4295 Q 3.8160285644531253 1.4295 3.879778564453125 1.4280000000000002 Q 3.9435285644531253 1.4265 3.9855285644531255 1.425 M 4.590031494140625 1.4220000000000002 L 4.9545314941406255 2.361 Q 4.9755314941406255 2.415 5.001781494140626 2.43525 Q 5.028031494140626 2.4555000000000002 5.049031494140626 2.4570000000000003 L 5.049031494140626 2.487 Q 5.004031494140626 2.484 4.943281494140625 2.48325 Q 4.8825314941406255 2.4825 4.821031494140626 2.4825 Q 4.752031494140626 2.4825 4.690531494140625 2.48325 Q 4.629031494140626 2.484 4.593031494140625 2.487 L 4.593031494140625 2.4570000000000003 Q 4.669531494140625 2.454 4.689781494140625 2.43075 Q 4.710031494140625 2.4075 4.680031494140626 2.331 L 4.425031494140626 1.6335000000000002 L 4.452031494140625 1.5945 L 4.224031494140625 2.1885000000000003 Q 4.182031494140626 2.2995 4.182781494140626 2.3565 Q 4.183531494140626 2.4135 4.219531494140625 2.4337500000000003 Q 4.255531494140626 2.454 4.315531494140625 2.4570000000000003 L 4.315531494140625 2.487 Q 4.266031494140625 2.484 4.221031494140625 2.48325 Q 4.176031494140625 2.4825 4.129531494140625 2.4825 Q 4.096531494140626 2.4825 4.067281494140626 2.48325 Q 4.0380314941406255 2.484 4.0155314941406255 2.487 L 4.0155314941406255 2.4570000000000003 Q 4.047031494140626 2.451 4.080031494140625 2.4165 Q 4.113031494140626 2.382 4.144531494140625 2.2995 L 4.486531494140626 1.4220000000000002 Q 4.510531494140626 1.4235 4.538281494140626 1.4235 Q 4.566031494140626 1.4235 4.590031494140625 1.4220000000000002 M 4.6950314941406255 2.055 L 4.6950314941406255 2.085 L 4.248031494140625 2.085 L 4.263031494140625 2.055 L 4.6950314941406255 2.055 M 5.5259904785156255 1.425 L 5.5259904785156255 1.455 Q 5.4779904785156255 1.4565000000000001 5.453240478515625 1.46625 Q 5.428490478515625 1.476 5.420990478515626 1.50225 Q 5.413490478515626 1.5285000000000002 5.413490478515626 1.584 L 5.413490478515626 2.3280000000000003 Q 5.413490478515626 2.382 5.421740478515625 2.4090000000000003 Q 5.429990478515625 2.436 5.4539904785156255 2.4450000000000003 Q 5.4779904785156255 2.454 5.5259904785156255 2.4570000000000003 L 5.5259904785156255 2.487 Q 5.485490478515626 2.484 5.423990478515625 2.48325 Q 5.3624904785156255 2.4825 5.299490478515626 2.4825 Q 5.225990478515626 2.4825 5.163740478515626 2.48325 Q 5.101490478515625 2.484 5.062490478515626 2.487 L 5.062490478515626 2.4570000000000003 Q 5.110490478515626 2.454 5.134490478515626 2.4450000000000003 Q 5.158490478515626 2.436 5.166740478515625 2.4090000000000003 Q 5.1749904785156255 2.382 5.1749904785156255 2.3280000000000003 L 5.1749904785156255 1.584 Q 5.1749904785156255 1.5285000000000002 5.166740478515625 1.50225 Q 5.158490478515626 1.476 5.133740478515626 1.46625 Q 5.108990478515626 1.4565000000000001 5.062490478515626 1.455 L 5.062490478515626 1.425 Q 5.101490478515625 1.4265 5.163740478515626 1.4280000000000002 Q 5.225990478515626 1.4295 5.299490478515626 1.4295 Q 5.3624904785156255 1.4295 5.423990478515625 1.4280000000000002 Q 5.485490478515626 1.4265 5.5259904785156255 1.425 M 6.617955322265626 1.425 L 6.617955322265626 1.455 Q 6.569955322265626 1.461 6.545955322265626 1.4797500000000001 Q 6.521955322265626 1.4985 6.513705322265626 1.5390000000000001 Q 6.505455322265625 1.5795000000000001 6.505455322265625 1.653 L 6.505455322265625 2.49 Q 6.4874553222656255 2.4885 6.468705322265626 2.4885 Q 6.449955322265626 2.4885 6.428955322265626 2.49 L 5.777955322265626 1.665 L 5.777955322265626 2.241 Q 5.777955322265626 2.3235 5.786955322265626 2.36775 Q 5.795955322265626 2.412 5.826705322265625 2.43075 Q 5.857455322265626 2.4495 5.923455322265625 2.4570000000000003 L 5.923455322265625 2.487 Q 5.894955322265625 2.484 5.848455322265625 2.48325 Q 5.801955322265625 2.4825 5.7614553222656255 2.4825 Q 5.726955322265626 2.4825 5.6909553222656255 2.48325 Q 5.654955322265626 2.484 5.630955322265626 2.487 L 5.630955322265626 2.4570000000000003 Q 5.678955322265626 2.4495 5.702955322265626 2.4315 Q 5.726955322265626 2.4135 5.735205322265625 2.37225 Q 5.743455322265626 2.331 5.743455322265626 2.259 L 5.743455322265626 1.584 Q 5.743455322265626 1.5285000000000002 5.735205322265625 1.50225 Q 5.726955322265626 1.476 5.702205322265626 1.46625 Q 5.677455322265626 1.4565000000000001 5.630955322265626 1.455 L 5.630955322265626 1.425 Q 5.654955322265626 1.4265 5.6909553222656255 1.4280000000000002 Q 5.726955322265626 1.4295 5.7614553222656255 1.4295 Q 5.797455322265626 1.4295 5.8304553222656255 1.4280000000000002 Q 5.863455322265626 1.4265 5.890455322265626 1.425 L 6.470955322265626 2.1405000000000003 L 6.470955322265626 1.671 Q 6.470955322265626 1.5885000000000002 6.461955322265625 1.5442500000000001 Q 6.452955322265626 1.5 6.422205322265626 1.4805000000000001 Q 6.391455322265625 1.461 6.325455322265626 1.455 L 6.325455322265626 1.425 Q 6.353955322265626 1.4265 6.400455322265626 1.4280000000000002 Q 6.446955322265626 1.4295 6.4874553222656255 1.4295 Q 6.523455322265626 1.4295 6.5587053222656255 1.4280000000000002 Q 6.593955322265626 1.4265 6.617955322265626 1.425 M 7.627432617187501 1.425 Q 7.621432617187501 1.5015 7.619182617187501 1.572 Q 7.6169326171875005 1.6425 7.6169326171875005 1.6800000000000002 Q 7.6169326171875005 1.713 7.6184326171875005 1.743 Q 7.619932617187501 1.7730000000000001 7.621432617187501 1.794 L 7.586932617187501 1.794 Q 7.562932617187501 1.6680000000000001 7.526182617187501 1.5945 Q 7.489432617187501 1.5210000000000001 7.438432617187501 1.49025 Q 7.387432617187501 1.4595 7.318432617187501 1.4595 L 7.283932617187501 1.4595 L 7.283932617187501 2.3160000000000003 Q 7.283932617187501 2.376 7.296682617187501 2.406 Q 7.3094326171875 2.436 7.343932617187501 2.4457500000000003 Q 7.378432617187501 2.4555000000000002 7.444432617187501 2.4570000000000003 L 7.444432617187501 2.487 Q 7.397932617187501 2.4855 7.320682617187501 2.484 Q 7.2434326171875005 2.4825 7.159432617187501 2.4825 Q 7.0769326171875 2.4825 7.003432617187501 2.484 Q 6.929932617187501 2.4855 6.884932617187501 2.487 L 6.884932617187501 2.4570000000000003 Q 6.952432617187501 2.4555000000000002 6.986932617187501 2.4457500000000003 Q 7.021432617187501 2.436 7.033432617187501 2.406 Q 7.045432617187501 2.376 7.045432617187501 2.3160000000000003 L 7.045432617187501 1.4595 L 7.012432617187501 1.4595 Q 6.943432617187501 1.4595 6.8924326171875006 1.49025 Q 6.8414326171875 1.5210000000000001 6.805432617187501 1.59375 Q 6.769432617187501 1.6665 6.742432617187501 1.794 L 6.707932617187501 1.794 Q 6.710932617187501 1.7730000000000001 6.711682617187501 1.743 Q 6.712432617187501 1.713 6.712432617187501 1.6800000000000002 Q 6.712432617187501 1.6425 6.710182617187501 1.572 Q 6.707932617187501 1.5015 6.7019326171875 1.425 Q 6.7709326171875 1.4265 6.852682617187501 1.4280000000000002 Q 6.9344326171875 1.4295 7.016932617187501 1.4295 Q 7.0994326171875 1.4295 7.165432617187501 1.4295 Q 7.232932617187501 1.4295 7.314682617187501 1.4295 Q 7.396432617187501 1.4295 7.478932617187501 1.4280000000000002 Q 7.561432617187501 1.4265 7.627432617187501 1.425 M 8.522977294921876 1.425 Q 8.516977294921876 1.491 8.514727294921876 1.5525000000000002 Q 8.512477294921876 1.614 8.512477294921876 1.6470000000000002 Q 8.512477294921876 1.677 8.513977294921876 1.7040000000000002 Q 8.515477294921876 1.731 8.516977294921876 1.749 L 8.482477294921877 1.749 Q 8.467477294921876 1.6395 8.435977294921877 1.5757500000000002 Q 8.404477294921875 1.512 8.354227294921875 1.4857500000000001 Q 8.303977294921875 1.4595 8.236477294921876 1.4595 L 8.174977294921876 1.4595 Q 8.129977294921876 1.4595 8.108227294921877 1.467 Q 8.086477294921876 1.4745000000000001 8.078977294921875 1.49625 Q 8.071477294921875 1.5180000000000002 8.071477294921875 1.566 L 8.071477294921875 2.346 Q 8.071477294921875 2.3925 8.078977294921875 2.415 Q 8.086477294921876 2.4375 8.108227294921877 2.4450000000000003 Q 8.129977294921876 2.4525 8.174977294921876 2.4525 L 8.248477294921877 2.4525 Q 8.315977294921876 2.4525 8.367727294921876 2.42325 Q 8.419477294921876 2.394 8.456227294921876 2.3235 Q 8.492977294921875 2.253 8.512477294921876 2.133 L 8.546977294921875 2.133 Q 8.542477294921875 2.181 8.542477294921875 2.259 Q 8.542477294921875 2.2935 8.543977294921875 2.3565 Q 8.545477294921875 2.4195 8.552977294921876 2.487 Q 8.476477294921876 2.484 8.380477294921876 2.48325 Q 8.284477294921876 2.4825 8.209477294921875 2.4825 Q 8.158477294921877 2.4825 8.074477294921875 2.4825 Q 7.990477294921876 2.4825 7.895977294921876 2.48325 Q 7.801477294921876 2.484 7.720477294921876 2.487 L 7.720477294921876 2.4570000000000003 Q 7.768477294921876 2.454 7.792477294921876 2.4450000000000003 Q 7.816477294921876 2.436 7.824727294921876 2.4090000000000003 Q 7.832977294921876 2.382 7.832977294921876 2.3280000000000003 L 7.832977294921876 1.584 Q 7.832977294921876 1.5285000000000002 7.824727294921876 1.50225 Q 7.816477294921876 1.476 7.791727294921876 1.46625 Q 7.766977294921876 1.4565000000000001 7.720477294921876 1.455 L 7.720477294921876 1.425 Q 7.801477294921876 1.4265 7.895977294921876 1.4280000000000002 Q 7.990477294921876 1.4295 8.074477294921875 1.4295 Q 8.158477294921877 1.4295 8.209477294921875 1.4295 Q 8.278477294921876 1.4295 8.366227294921876 1.4287500000000002 Q 8.453977294921875 1.4280000000000002 8.522977294921876 1.425 M 8.288977294921876 1.9380000000000002 Q 8.288977294921876 1.9380000000000002 8.288977294921876 1.953 Q 8.288977294921876 1.968 8.288977294921876 1.968 L 8.026477294921875 1.968 Q 8.026477294921875 1.968 8.026477294921875 1.953 Q 8.026477294921875 1.9380000000000002 8.026477294921875 1.9380000000000002 L 8.288977294921876 1.9380000000000002 M 8.332477294921876 1.7400000000000002 Q 8.326477294921876 1.8255000000000001 8.327227294921876 1.8705 Q 8.327977294921876 1.9155000000000002 8.327977294921876 1.953 Q 8.327977294921876 1.9905000000000002 8.329477294921876 2.0355 Q 8.330977294921876 2.0805000000000002 8.336977294921876 2.166 L 8.302477294921875 2.166 Q 8.294977294921877 2.1135 8.274727294921876 2.0685000000000002 Q 8.254477294921877 2.0235000000000003 8.216977294921875 1.9957500000000001 Q 8.179477294921876 1.968 8.119477294921875 1.968 L 8.119477294921875 1.9380000000000002 Q 8.179477294921876 1.9380000000000002 8.215477294921875 1.9050000000000002 Q 8.251477294921877 1.872 8.270977294921876 1.82625 Q 8.290477294921876 1.7805 8.297977294921877 1.7400000000000002 L 8.332477294921876 1.7400000000000002 M 9.662935546875001 1.425 L 9.662935546875001 1.455 Q 9.614935546875001 1.461 9.590935546875 1.4797500000000001 Q 9.566935546875001 1.4985 9.558685546875001 1.5390000000000001 Q 9.550435546875 1.5795000000000001 9.550435546875 1.653 L 9.550435546875 2.49 Q 9.532435546875002 2.4885 9.513685546875001 2.4885 Q 9.494935546875 2.4885 9.473935546875001 2.49 L 8.822935546875001 1.665 L 8.822935546875001 2.241 Q 8.822935546875001 2.3235 8.831935546875002 2.36775 Q 8.840935546875 2.412 8.871685546875002 2.43075 Q 8.902435546875001 2.4495 8.968435546875002 2.4570000000000003 L 8.968435546875002 2.487 Q 8.939935546875 2.484 8.893435546875 2.48325 Q 8.846935546875 2.4825 8.806435546875 2.4825 Q 8.771935546875001 2.4825 8.735935546875002 2.48325 Q 8.699935546875 2.484 8.675935546875001 2.487 L 8.675935546875001 2.4570000000000003 Q 8.723935546875001 2.4495 8.747935546875 2.4315 Q 8.771935546875001 2.4135 8.780185546875002 2.37225 Q 8.788435546875 2.331 8.788435546875 2.259 L 8.788435546875 1.584 Q 8.788435546875 1.5285000000000002 8.780185546875002 1.50225 Q 8.771935546875001 1.476 8.747185546875 1.46625 Q 8.722435546875001 1.4565000000000001 8.675935546875001 1.455 L 8.675935546875001 1.425 Q 8.699935546875 1.4265 8.735935546875002 1.4280000000000002 Q 8.771935546875001 1.4295 8.806435546875 1.4295 Q 8.842435546875 1.4295 8.875435546875002 1.4280000000000002 Q 8.908435546875001 1.4265 8.935435546875 1.425 L 9.515935546875001 2.1405000000000003 L 9.515935546875001 1.671 Q 9.515935546875001 1.5885000000000002 9.506935546875 1.5442500000000001 Q 9.497935546875 1.5 9.467185546875001 1.4805000000000001 Q 9.436435546875002 1.461 9.370435546875001 1.455 L 9.370435546875001 1.425 Q 9.398935546875 1.4265 9.445435546875 1.4280000000000002 Q 9.491935546875002 1.4295 9.532435546875002 1.4295 Q 9.568435546875001 1.4295 9.603685546875 1.4280000000000002 Q 9.638935546875 1.4265 9.662935546875001 1.425 M 10.241912109375 1.4220000000000002 L 10.606412109375 2.361 Q 10.627412109375001 2.415 10.653662109375 2.43525 Q 10.679912109375001 2.4555000000000002 10.700912109375 2.4570000000000003 L 10.700912109375 2.487 Q 10.655912109375 2.484 10.595162109375002 2.48325 Q 10.534412109375001 2.4825 10.472912109375 2.4825 Q 10.403912109375002 2.4825 10.342412109375001 2.48325 Q 10.280912109375 2.484 10.244912109375 2.487 L 10.244912109375 2.4570000000000003 Q 10.321412109375002 2.454 10.341662109375001 2.43075 Q 10.361912109375002 2.4075 10.331912109375 2.331 L 10.076912109375002 1.6335000000000002 L 10.103912109375 1.5945 L 9.875912109375001 2.1885000000000003 Q 9.833912109375001 2.2995 9.834662109375001 2.3565 Q 9.835412109375001 2.4135 9.871412109375001 2.4337500000000003 Q 9.907412109375 2.454 9.967412109375001 2.4570000000000003 L 9.967412109375001 2.487 Q 9.917912109375001 2.484 9.872912109375001 2.48325 Q 9.827912109375001 2.4825 9.781412109375001 2.4825 Q 9.748412109375002 2.4825 9.719162109375 2.48325 Q 9.689912109375001 2.484 9.667412109375 2.487 L 9.667412109375 2.4570000000000003 Q 9.698912109375001 2.451 9.731912109375001 2.4165 Q 9.764912109375 2.382 9.796412109375002 2.2995 L 10.138412109375 1.4220000000000002 Q 10.162412109375001 1.4235 10.190162109375 1.4235 Q 10.217912109375002 1.4235 10.241912109375 1.4220000000000002 M 10.346912109375001 2.055 L 10.346912109375001 2.085 L 9.899912109375002 2.085 L 9.914912109375 2.055 L 10.346912109375001 2.055 M 11.702871093750002 1.425 L 11.702871093750002 1.455 Q 11.654871093750002 1.461 11.63087109375 1.4797500000000001 Q 11.606871093750001 1.4985 11.598621093750001 1.5390000000000001 Q 11.59037109375 1.5795000000000001 11.59037109375 1.653 L 11.59037109375 2.49 Q 11.572371093750002 2.4885 11.553621093750001 2.4885 Q 11.53487109375 2.4885 11.513871093750002 2.49 L 10.862871093750002 1.665 L 10.862871093750002 2.241 Q 10.862871093750002 2.3235 10.871871093750002 2.36775 Q 10.88087109375 2.412 10.911621093750002 2.43075 Q 10.942371093750001 2.4495 11.008371093750002 2.4570000000000003 L 11.008371093750002 2.487 Q 10.97987109375 2.484 10.93337109375 2.48325 Q 10.88687109375 2.4825 10.846371093750001 2.4825 Q 10.811871093750002 2.4825 10.775871093750002 2.48325 Q 10.73987109375 2.484 10.715871093750001 2.487 L 10.715871093750001 2.4570000000000003 Q 10.763871093750002 2.4495 10.78787109375 2.4315 Q 10.811871093750002 2.4135 10.820121093750002 2.37225 Q 10.82837109375 2.331 10.82837109375 2.259 L 10.82837109375 1.584 Q 10.82837109375 1.5285000000000002 10.820121093750002 1.50225 Q 10.811871093750002 1.476 10.78712109375 1.46625 Q 10.762371093750001 1.4565000000000001 10.715871093750001 1.455 L 10.715871093750001 1.425 Q 10.73987109375 1.4265 10.775871093750002 1.4280000000000002 Q 10.811871093750002 1.4295 10.846371093750001 1.4295 Q 10.88237109375 1.4295 10.915371093750002 1.4280000000000002 Q 10.948371093750001 1.4265 10.97537109375 1.425 L 11.555871093750001 2.1405000000000003 L 11.555871093750001 1.671 Q 11.555871093750001 1.5885000000000002 11.546871093750001 1.5442500000000001 Q 11.53787109375 1.5 11.507121093750001 1.4805000000000001 Q 11.476371093750002 1.461 11.410371093750001 1.455 L 11.410371093750001 1.425 Q 11.43887109375 1.4265 11.48537109375 1.4280000000000002 Q 11.531871093750002 1.4295 11.572371093750002 1.4295 Q 11.608371093750002 1.4295 11.643621093750001 1.4280000000000002 Q 11.67887109375 1.4265 11.702871093750002 1.425 M 12.33431982421875 1.4040000000000001 Q 12.433319824218751 1.4040000000000001 12.497069824218752 1.4332500000000001 Q 12.56081982421875 1.4625000000000001 12.61031982421875 1.5015 Q 12.640319824218752 1.524 12.65606982421875 1.50675 Q 12.671819824218751 1.4895 12.677819824218751 1.425 L 12.712319824218751 1.425 Q 12.70931982421875 1.4835 12.70781982421875 1.56675 Q 12.70631982421875 1.6500000000000001 12.70631982421875 1.788 L 12.671819824218751 1.788 Q 12.664319824218751 1.719 12.65231982421875 1.6702500000000002 Q 12.640319824218752 1.6215000000000002 12.619319824218751 1.584 Q 12.598319824218752 1.5465 12.55931982421875 1.5165000000000002 Q 12.52181982421875 1.479 12.47231982421875 1.461 Q 12.42281982421875 1.443 12.368819824218752 1.443 Q 12.28781982421875 1.443 12.230819824218752 1.4857500000000001 Q 12.173819824218752 1.5285000000000002 12.13856982421875 1.602 Q 12.103319824218751 1.6755 12.086819824218752 1.76775 Q 12.070319824218751 1.86 12.070319824218751 1.959 Q 12.070319824218751 2.0595 12.087569824218752 2.1517500000000003 Q 12.104819824218751 2.244 12.14156982421875 2.3160000000000003 Q 12.178319824218752 2.388 12.23681982421875 2.43 Q 12.295319824218751 2.472 12.37481982421875 2.472 Q 12.42431982421875 2.472 12.47456982421875 2.45325 Q 12.524819824218751 2.4345 12.56081982421875 2.3985000000000003 Q 12.619319824218751 2.3535 12.640319824218752 2.28675 Q 12.66131982421875 2.22 12.671819824218751 2.109 L 12.70631982421875 2.109 Q 12.70631982421875 2.2515 12.70781982421875 2.3392500000000003 Q 12.70931982421875 2.427 12.712319824218751 2.487 L 12.677819824218751 2.487 Q 12.671819824218751 2.4225000000000003 12.65756982421875 2.406 Q 12.643319824218752 2.3895 12.61031982421875 2.4105000000000003 Q 12.554819824218752 2.4495 12.492569824218752 2.4787500000000002 Q 12.430319824218751 2.508 12.33281982421875 2.508 Q 12.173819824218752 2.508 12.054569824218751 2.4435000000000002 Q 11.935319824218752 2.379 11.869319824218751 2.2575000000000003 Q 11.803319824218752 2.136 11.803319824218752 1.965 Q 11.803319824218752 1.7970000000000002 11.871569824218751 1.671 Q 11.939819824218752 1.545 12.059069824218751 1.4745000000000001 Q 12.178319824218752 1.4040000000000001 12.33431982421875 1.4040000000000001 M 13.652845458984377 1.425 Q 13.646845458984377 1.491 13.644595458984377 1.5525000000000002 Q 13.642345458984376 1.614 13.642345458984376 1.6470000000000002 Q 13.642345458984376 1.677 13.643845458984377 1.7040000000000002 Q 13.645345458984377 1.731 13.646845458984377 1.749 L 13.612345458984377 1.749 Q 13.597345458984377 1.6395 13.565845458984377 1.5757500000000002 Q 13.534345458984376 1.512 13.484095458984376 1.4857500000000001 Q 13.433845458984376 1.4595 13.366345458984377 1.4595 L 13.304845458984376 1.4595 Q 13.259845458984376 1.4595 13.238095458984377 1.467 Q 13.216345458984376 1.4745000000000001 13.208845458984376 1.49625 Q 13.201345458984376 1.5180000000000002 13.201345458984376 1.566 L 13.201345458984376 2.346 Q 13.201345458984376 2.3925 13.208845458984376 2.415 Q 13.216345458984376 2.4375 13.238095458984377 2.4450000000000003 Q 13.259845458984376 2.4525 13.304845458984376 2.4525 L 13.378345458984377 2.4525 Q 13.445845458984376 2.4525 13.497595458984376 2.42325 Q 13.549345458984376 2.394 13.586095458984376 2.3235 Q 13.622845458984376 2.253 13.642345458984376 2.133 L 13.676845458984376 2.133 Q 13.672345458984376 2.181 13.672345458984376 2.259 Q 13.672345458984376 2.2935 13.673845458984376 2.3565 Q 13.675345458984376 2.4195 13.682845458984376 2.487 Q 13.606345458984377 2.484 13.510345458984377 2.48325 Q 13.414345458984377 2.4825 13.339345458984376 2.4825 Q 13.288345458984377 2.4825 13.204345458984376 2.4825 Q 13.120345458984376 2.4825 13.025845458984376 2.48325 Q 12.931345458984376 2.484 12.850345458984377 2.487 L 12.850345458984377 2.4570000000000003 Q 12.898345458984377 2.454 12.922345458984376 2.4450000000000003 Q 12.946345458984377 2.436 12.954595458984377 2.4090000000000003 Q 12.962845458984377 2.382 12.962845458984377 2.3280000000000003 L 12.962845458984377 1.584 Q 12.962845458984377 1.5285000000000002 12.954595458984377 1.50225 Q 12.946345458984377 1.476 12.921595458984376 1.46625 Q 12.896845458984377 1.4565000000000001 12.850345458984377 1.455 L 12.850345458984377 1.425 Q 12.931345458984376 1.4265 13.025845458984376 1.4280000000000002 Q 13.120345458984376 1.4295 13.204345458984376 1.4295 Q 13.288345458984377 1.4295 13.339345458984376 1.4295 Q 13.408345458984376 1.4295 13.496095458984376 1.4287500000000002 Q 13.583845458984376 1.4280000000000002 13.652845458984377 1.425 M 13.418845458984377 1.9380000000000002 Q 13.418845458984377 1.9380000000000002 13.418845458984377 1.953 Q 13.418845458984377 1.968 13.418845458984377 1.968 L 13.156345458984376 1.968 Q 13.156345458984376 1.968 13.156345458984376 1.953 Q 13.156345458984376 1.9380000000000002 13.156345458984376 1.9380000000000002 L 13.418845458984377 1.9380000000000002 M 13.462345458984377 1.7400000000000002 Q 13.456345458984377 1.8255000000000001 13.457095458984377 1.8705 Q 13.457845458984377 1.9155000000000002 13.457845458984377 1.953 Q 13.457845458984377 1.9905000000000002 13.459345458984377 2.0355 Q 13.460845458984377 2.0805000000000002 13.466845458984377 2.166 L 13.432345458984376 2.166 Q 13.424845458984377 2.1135 13.404595458984376 2.0685000000000002 Q 13.384345458984377 2.0235000000000003 13.346845458984376 1.9957500000000001 Q 13.309345458984376 1.968 13.249345458984376 1.968 L 13.249345458984376 1.9380000000000002 Q 13.309345458984376 1.9380000000000002 13.345345458984376 1.9050000000000002 Q 13.381345458984377 1.872 13.400845458984376 1.82625 Q 13.420345458984377 1.7805 13.427845458984377 1.7400000000000002 L 13.462345458984377 1.7400000000000002" fill="#fffcf7" fill-rule="nonzero"></path></g><g></g><g clip-path="url(#SvgjsClipPath1061)"><g clip-path="url(#SvgjsClipPath1060d7331401-ce0e-4b0c-bb25-b6476903292a)"><path d=" M 12.950868525492421 -3.9987555680295905 C 12.972253326222766 -3.990979276854919 12.994998977908677 -3.984175022077081 13.01852225871206 -3.9779539891373465 C 12.982353950900924 -4.021433747474025 12.950879748345534 -4.068612469316885 12.924623542777905 -4.118704859398893 C 12.94406427071458 -4.110928568224221 12.96661551512113 -4.104124313446386 12.989361166807042 -4.097903280506648 C 12.933362173593853 -4.1643799986894265 12.892380114932951 -4.2421663333322135 12.869217468158373 -4.32594301920388 C 12.846674599445796 -4.2408123467351615 12.805654661603505 -4.161692984424454 12.749073769509705 -4.094209542198681 C 12.771388739908815 -4.10077336832687 12.793325192629244 -4.1085614580501 12.814783429935671 -4.117538415722694 C 12.78806024432356 -4.066405218466013 12.756277713509954 -4.018080140876476 12.719912677604688 -3.9732882144325448 C 12.743435958408071 -3.9802868764897497 12.766181610093982 -3.9878687603850542 12.787566410824331 -3.996422680677192 C 12.760444714667004 -3.9395052042294125 12.727892568135157 -3.885338432400415 12.69036277114094 -3.834675824244033 C 12.719912677604688 -3.844201780933007 12.748684954950976 -3.8541165521807104 12.775318752224228 -3.8661698035014513 C 12.743832821389661 -3.807181611551072 12.706514565694798 -3.7514973033152765 12.663923381147061 -3.6999515796428524 C 12.696000582242576 -3.7092831290524604 12.7269113396619 -3.7193923075795325 12.75626683884628 -3.7304735225034404 C 12.72345942513227 -3.6702481843082646 12.685264356723431 -3.613118252344097 12.642149765857983 -3.5597839312194095 L 12.648565206077086 -3.552007640044736 C 12.719011034695063 -3.5580213769524214 12.787713541446424 -3.5771420362210344 12.851137591177269 -3.6083857510611024 L 12.851137591177269 -3.5156534788031486 L 12.888074974256956 -3.5156534788031486 L 12.888074974256956 -3.6085801583404686 C 12.95576411095018 -3.5759872014530654 13.029721630924149 -3.558476183270887 13.104839090750914 -3.5572566365876392 C 13.058442370905542 -3.6118303733458283 13.01760883815812 -3.6708989765386635 12.98294572658794 -3.7335840389733077 C 13.012106818492958 -3.7232804531668693 13.043017575912277 -3.714143311036631 13.075094777007791 -3.7057837980238597 C 13.032521358453355 -3.756117639837746 12.995256918192927 -3.810711347771721 12.963893813209998 -3.868697098133219 C 12.990527610483243 -3.8580046977680444 13.019105480550161 -3.8492563701965423 13.048655387013913 -3.839924820786937 C 13.010776112548857 -3.889427830700689 12.97801298552803 -3.942643486319014 12.950868525492421 -3.9987555680295905 Z" fill="#fffcf7" transform="matrix(1,0,0,1,0,0)" fill-rule="evenodd"></path></g><g clip-path="url(#SvgjsClipPath1060d7331401-ce0e-4b0c-bb25-b6476903292a)"><path d=" M 12.735659667233396 -4.052023162576087 C 12.759571762595508 -4.043274835004582 12.784650301633825 -4.035692951109278 12.810700877068971 -4.028694289052073 C 12.77072773380075 -4.0767444781859625 12.73593097988289 -4.128874446602243 12.706887389887111 -4.1842201125454945 C 12.730307866564452 -4.175301200565642 12.754189388789952 -4.167643538547683 12.778429268694085 -4.161280053580217 C 12.7163192289921 -4.2349244027673905 12.670889015871204 -4.321142325478583 12.645260282327841 -4.414009516757028 C 12.620351031579741 -4.31969143123759 12.574873634980257 -4.232056156038582 12.512091295961596 -4.157391907992882 C 12.536839641543057 -4.164617277913331 12.561176522632662 -4.17318386005687 12.584994025724143 -4.1830536688693 C 12.55543176911906 -4.126365515925107 12.520193138728231 -4.072823641283227 12.479819687586717 -4.023250885229805 C 12.505870263021862 -4.0310271764044785 12.530948802060179 -4.039581096696614 12.55486089742229 -4.048912646106222 C 12.524652277494539 -3.9858421046194525 12.488455948200166 -3.9258186952500065 12.446770450094354 -3.869669134530053 C 12.479430873027978 -3.8801671276158585 12.510924852285397 -3.891637157098497 12.540669166028515 -3.904468037536706 C 12.516933297613548 -3.860022758719098 12.490239441415344 -3.81722166082466 12.460767774208767 -3.776353640433997 L 12.488568015158219 -3.7429155883829104 C 12.499066008244021 -3.7464149194115137 12.509369594050463 -3.7503030649988487 12.5196731798569 -3.7541912105861854 L 12.50334296839009 -3.7252245259605363 L 12.600546608073481 -3.6070249001055323 C 12.608517306527515 -3.610718638413503 12.616293597702189 -3.6146067840008396 12.623681074318124 -3.618883744146908 L 12.623681074318124 -3.57903025187672 L 12.66489541754388 -3.5298452101969247 L 12.66489541754388 -3.6192725587056414 C 12.739883300957525 -3.5832208952540157 12.821795334317622 -3.5638538395931656 12.904988407561856 -3.5625056331305407 C 12.853552521172755 -3.623036518999619 12.808290242009354 -3.688552854018873 12.769875348401944 -3.7580793561735177 C 12.802341364056197 -3.746609326690881 12.83655704522475 -3.7363057408844425 12.872133577348874 -3.7271685987542016 C 12.824893586819124 -3.7829031453546387 12.783525365307428 -3.843359380886695 12.748684954950972 -3.907578554006573 C 12.778429268694085 -3.8957197099651983 12.810117655230876 -3.8852217168793928 12.842778078164494 -3.875695760190421 C 12.801356439076478 -3.9308033477575943 12.765476303286016 -3.989865567652239 12.735659667233401 -4.052023162576087 Z" fill="#fffcf7" transform="matrix(1,0,0,1,0,0)" fill-rule="evenodd"></path></g><g clip-path="url(#SvgjsClipPath1060d7331401-ce0e-4b0c-bb25-b6476903292a)"><path d=" M 12.50101008103769 -4.10431872072575 C 12.522394881768038 -4.096542429551076 12.54514053345395 -4.089543767493876 12.568858221536695 -4.0833227345541365 C 12.532665597654118 -4.126854091938148 12.501190118357808 -4.174099894194508 12.474959505602538 -4.2242680120950515 C 12.49606284864995 -4.216118103577536 12.517611937955925 -4.209173065759041 12.5395027223523 -4.203466433202805 C 12.483543566017289 -4.26989650891951 12.44256462531379 -4.347610616531982 12.419359023703642 -4.43131176462067 C 12.396891752342974 -4.346210388058538 12.355862072094817 -4.2671386256385455 12.299215325054973 -4.199772694894834 C 12.322349791299617 -4.206771356952039 12.344512221147435 -4.214353240847344 12.365119392760311 -4.222907161139482 C 12.338396575437454 -4.17178993424411 12.306544305034105 -4.123522996884434 12.270054233149954 -4.078851367128699 C 12.293577513953338 -4.085850029185904 12.316323165639249 -4.093431913081209 12.337902373648955 -4.101791426093977 C 12.320526920566707 -4.065438790930162 12.301053358477047 -4.030126731674241 12.279580189838924 -3.9960338661184487 L 12.306408394391536 -3.963567850464199 L 12.325849122328213 -3.971538548918234 L 12.31535112924241 -3.9520978209815603 L 12.544946126174578 -3.6762338915601003 C 12.58125925275115 -3.6686492682401255 12.618118753156987 -3.663968696760022 12.65517505357555 -3.6622365674456914 C 12.608929500190614 -3.716926192868354 12.568106621837801 -3.77597938372322 12.53328168941257 -3.8385639698313625 C 12.562637188596955 -3.828454791304285 12.593547946016269 -3.8191232418946823 12.625625147111787 -3.810958136161278 C 12.582992981467543 -3.8612200443097935 12.545663334541356 -3.9157486908668915 12.514229776034622 -3.9736770289912684 C 12.541057980587238 -3.9629846286260983 12.569635850654151 -3.9542363010545962 12.599185757117908 -3.944904751644989 C 12.561222982154737 -3.994633551300516 12.528333776942429 -4.048037805308636 12.50101008103769 -4.10431872072575 Z" fill="#fffcf7" transform="matrix(1,0,0,1,0,0)" fill-rule="evenodd"></path></g><g clip-path="url(#SvgjsClipPath1060d7331401-ce0e-4b0c-bb25-b6476903292a)"><path d=" M 2.7164917105077264 -3.7897677427103025 C 2.68810824772018 -3.7786865277863946 2.65816952669769 -3.768577349259325 2.6266755474402763 -3.7592457998497197 C 2.674654111680195 -3.818148103077066 2.716292733331292 -3.881941859878987 2.7509017989556463 -3.9495705263497927 C 2.722969006583515 -3.9379491806175357 2.694411900224437 -3.9278892908774026 2.665362596034269 -3.9194373980479433 C 2.739406235684034 -4.009369143116262 2.7936590848943377 -4.1139002738291435 2.824582157835663 -4.226212084888724 C 2.854100723501978 -4.114852245590718 2.9084705687235477 -4.011629299833879 2.983607312357676 -3.924297580032114 C 2.9540715201651895 -3.9320578319244524 2.924994346771208 -3.9414689706345563 2.89651285120136 -3.9524866355402937 C 2.9318835672651695 -3.885918382980452 2.9740343162022356 -3.823180869492986 3.0222943609516686 -3.7652724255100933 C 2.991189196252983 -3.773437531243496 2.9610560679511364 -3.782769080653101 2.93267260516358 -3.7930726664595396 C 2.968649705912507 -3.7189269031732364 3.0118900405520064 -3.64853111741225 3.061759038663123 -3.582918397464054 C 3.0228775827897687 -3.5941940196673237 2.984968163313243 -3.606830492826166 2.949391631189123 -3.621799853337408 C 2.9910027189884723 -3.545079420248923 3.0403819333454427 -3.4728346330168858 3.096752348949143 -3.4062021805196494 C 3.054371562047187 -3.4170889881641884 3.0133516261007944 -3.4293366467642974 2.9746645775068066 -3.4429451563199702 C 3.020702664992042 -3.360099154179739 3.07474682965265 -3.281963012501751 3.1360226193812353 -3.209656421079835 C 3.036842708355702 -3.2133378433238775 2.9393504952248115 -3.236455915543261 2.84907747503587 -3.2776989688582097 L 2.84907747503587 -3.1546391610190376 L 2.8000868406354416 -3.1546391610190376 L 2.8000868406354416 -3.2775045615788407 C 2.7109973069757807 -3.2314472518737762 2.613103380623051 -3.2049356942968714 2.5129472890107047 -3.1997416498321325 C 2.5742849904408382 -3.273945149046156 2.6283212829155573 -3.353892820321999 2.674305330885138 -3.4384737888945356 C 2.6354238750117838 -3.4235044283832927 2.594792753624124 -3.4100903261069844 2.552217559442802 -3.397842667506878 C 2.608624588070082 -3.466159648213713 2.6580557514727747 -3.5399481964815003 2.6997726844821783 -3.618106115029436 C 2.6629720105456878 -3.602363264072304 2.6254041119833467 -3.588478064949089 2.5872108697288168 -3.576502957244948 C 2.6370794988126027 -3.64325685603594 2.680374686118018 -3.7146776387036686 2.7164917105077264 -3.7897677427103025 Z" fill="#fffcf7" transform="matrix(1,0,0,1,0,0)" fill-rule="evenodd"></path></g><g clip-path="url(#SvgjsClipPath1060d7331401-ce0e-4b0c-bb25-b6476903292a)"><path d=" M 3.0005207456625858 -3.8686970981332163 C 2.9690267664051673 -3.856449439533108 2.9357831216334476 -3.8451738173298358 2.9011786259061614 -3.8348702315233947 C 2.9542079928638074 -3.900247643161607 3.000333498871674 -3.9709343296284727 3.0388189796978446 -4.045802129636347 C 3.0078148725251803 -4.033026470105605 2.976145461593652 -4.021929197012791 2.943948227366855 -4.012558484864625 C 3.026056476338741 -4.112187176871443 3.0861490058880485 -4.2280657151092935 3.120275629752531 -4.352576816477123 C 3.153146145843185 -4.229114162201288 3.213489359833699 -4.114674718928537 3.2967974394175585 -4.017807481407534 C 3.263834774870157 -4.026409115470732 3.2313822608998413 -4.036858824969176 3.1995937997341732 -4.049107053385583 C 3.2387239367667067 -3.9752471328896544 3.285439213931663 -3.9056628706690555 3.338983819040142 -3.8414800790218635 C 3.3043793233128658 -3.8508116284314706 3.2711356785411465 -3.86092080695854 3.2396416992837276 -3.8723908364411814 C 3.279395715800311 -3.790028263052138 3.327331462268079 -3.7118721546807754 3.382725456897674 -3.6391021012010443 C 3.3393726335988805 -3.6515441670805213 3.2975750685350254 -3.6655414911949284 3.258110390823571 -3.68128848082364 C 3.3042627231662722 -3.59618431651785 3.3590501187366373 -3.516055307538606 3.4216069127710336 -3.4421675272025007 C 3.374560351164277 -3.454415185802609 3.3290690477924443 -3.4680236953582844 3.285521817214289 -3.4829930558695246 C 3.336401798613061 -3.390956506320342 3.3963152926685534 -3.304212186666078 3.464376514231732 -3.2240425597529745 C 3.3543602621025954 -3.228123460034273 3.2462231938473463 -3.253820051085765 3.1461317979083097 -3.299666991426654 L 3.1461317979083097 -3.163581895869907 L 3.091892166964975 -3.163581895869907 L 3.091892166964975 -3.299666991426654 C 2.9930379574183408 -3.249094229812214 2.884554377197164 -3.220134349203385 2.7736474506415627 -3.214711010343372 C 2.841689655811221 -3.2968826374981735 2.9016501396412613 -3.385423634250462 2.9526965549383624 -3.4791049102821905 C 2.909732546198302 -3.4627746988153802 2.8642412428264743 -3.4478053383041383 2.816611459381618 -3.4341968287484654 C 2.8791045862903863 -3.5099417533937904 2.933875322132162 -3.5917396656616463 2.98010798132908 -3.678372371633137 C 2.93931360505555 -3.660906282459755 2.8976565409258157 -3.645528207383828 2.855298507975605 -3.632297846423209 C 2.911279926845485 -3.706186449892832 2.9599178010745653 -3.785361356268413 3.0005207456625858 -3.8686970981332163 Z" fill="#fffcf7" transform="matrix(1,0,0,1,0,0)" fill-rule="evenodd"></path></g><g clip-path="url(#SvgjsClipPath1060d7331401-ce0e-4b0c-bb25-b6476903292a)"><path d=" M 3.3121556144875344 -3.9476264535561256 C 3.2837721516999885 -3.9363508313528532 3.2538334306774983 -3.926241652825781 3.222533858699446 -3.9169101034161757 C 3.270339862426164 -3.9760077458874026 3.311965904087185 -4.039847371596012 3.346760110214821 -4.107429237195623 C 3.3187497368820034 -4.095837814114606 3.2901295893856264 -4.08577857860001 3.261026500014062 -4.077296108893766 C 3.3351392662902177 -4.167109026863646 3.3894017265445355 -4.27159242102856 3.4202460618154613 -4.383876388455177 C 3.449864050091687 -4.2727697782888985 3.5041540076699005 -4.169771694756185 3.5790768090581175 -4.082545105436675 C 3.549473126285729 -4.09021359639541 3.520329739726879 -4.099560250436555 3.4917879406224346 -4.1105397536654875 C 3.5271563249148277 -4.043924628749435 3.569376740648876 -3.981180399811329 3.61776385765211 -3.9233255436352827 C 3.5864642856740527 -3.931685056648054 3.556331157372201 -3.9408221987782923 3.527947694584655 -3.9511257845847316 C 3.56396508416926 -3.8769602315111236 3.607271983755099 -3.8065620985001614 3.657228535363564 -3.7409715155892433 C 3.61834707949021 -3.752441545071882 3.579465623616851 -3.7650780182307217 3.5446667206101927 -3.7798529714626 C 3.586276604036467 -3.7030856408825654 3.6357254508811256 -3.630834295492937 3.692221845649584 -3.564255298644839 C 3.649646651468252 -3.5753365135687467 3.608821122801231 -3.5873897648894886 3.5701340742072434 -3.6009982744451614 C 3.616150895160679 -3.51813905461975 3.67019645556493 -3.4400008949991516 3.7314921160816716 -3.3677095392050242 C 3.6322502430692793 -3.371551809710443 3.5347129101531705 -3.3947309592389177 3.4443525644569397 -3.4359464942627653 L 3.4443525644569397 -3.312886686423596 L 3.395361930056511 -3.312886686423596 L 3.395361930056511 -3.435752086983399 C 3.3062170447338413 -3.390187746672784 3.2084101655172055 -3.3640794062856907 3.108416785711146 -3.3591556189128884 C 3.1696485335120217 -3.433369105469481 3.223678146985144 -3.513241799121908 3.2697748275855743 -3.597693350695925 C 3.23089337171222 -3.5829183974640495 3.1900678430451936 -3.569504295187743 3.1476870561432384 -3.5570622293082677 C 3.2039891535897014 -3.625415657814214 3.2533524085003256 -3.699200048069806 3.295047773903263 -3.7773256768308254 C 3.259471241779138 -3.7619675017608545 3.2217562295819793 -3.7483589922051763 3.1826803664292584 -3.7359169263257037 C 3.232509895284346 -3.802183791216118 3.275866934043103 -3.8730784086459744 3.3121556144875344 -3.9476264535561256 Z" fill="#fffcf7" transform="matrix(1,0,0,1,0,0)" fill-rule="evenodd"></path></g><g clip-path="url(#SvgjsClipPath1060d7331401-ce0e-4b0c-bb25-b6476903292a)"><path d=" M 13.207874948815302 -3.343797443842912 C 13.368821811053538 -3.1177577833810712 13.542786382644636 -2.901275751195879 13.728886457518279 -2.6954491671546927 C 14.171940647195155 -2.585220239753742 14.633074713853158 -2.050016999657 15.296586758331973 -1.9699212005578879 C 15.09552551148802 -1.910738583557242 14.88451387115395 -1.893143255554464 14.676427537151946 -1.9182088642463233 C 14.685421317862689 -1.8734083673172508 14.686997545724196 -1.8274350546899054 14.681093311856749 -1.78212376868958 C 14.606635323859274 -1.2095943309544168 13.69117144532111 -1.1333866774426387 12.74013103465883 -1.2154265493354197 C 10.999213847929324 -1.365508969006573 9.12415563843675 -2.149747933972158 7.428535347799705 -2.017162169444016 C 5.5890536704312455 -1.8733007827126 6.322941150040832 -0.49981335398630833 8.077855660884747 -0.6652539487274369 C 7.26756612048401 -0.33476157380391225 6.289308690710385 -0.1702930154596185 5.502153616554296 -0.5291688531706908 C 4.61973897550849 -0.9306198850630887 4.679810824832827 -1.7963155000833542 6.204741524185836 -2.0574044762729384 C 4.661730947851712 -1.9423153668878044 4.255808548533878 -1.0252962301147104 5.202183184491356 -0.46870818928762326 C 4.531672477955335 -0.40124886334735077 3.9476730107375353 -0.6005163246982983 3.6234016687537447 -0.9961351382096932 C 3.5390289095085627 -0.7286307218010064 3.6863896272685825 -0.46248715634788695 3.9978300888141596 -0.251749665514299 C 3.5456387570070316 -0.21928364986004656 2.486896713575559 -0.8281672488367979 3.0063529640435873 -1.515396981398359 C 3.377282053075401 -2.005886547240742 4.0715104476941715 -2.2226506637347 4.640734961680101 -2.331907554738831 C 5.47579095573007 -2.4683064418492044 6.3230789768815745 -2.514646579006028 7.168029593448214 -2.4701311303686095 C 7.453808294117383 -2.4613828027971048 7.739392587507182 -2.44777429324143 8.024588066338247 -2.4312496744952536 C 9.254991737450593 -2.3610686466438464 10.449041247321343 -2.1563577814706276 11.663309114246243 -1.9913060012882333 C 12.097466237353382 -1.9215889431016127 12.536083865108452 -1.8832561923423938 12.975752657251377 -1.8766057064618327 C 13.401893413623345 -1.882049110284103 14.081152447730867 -2.0634311019333076 13.624878563057038 -2.571611730198069 C 13.992113913780884 -1.507620690223689 11.035762416450279 -2.458661100885969 8.043834386995556 -2.6299339140081006 C 5.6957832668036055 -2.764269344050544 3.008685851395993 -2.729081626485158 2.584100353258944 -1.0797302683374088 C 2.469805625052665 -1.323840477093694 2.4802286106515035 -1.6080839801953664 2.612095001487762 -1.843167654410748 C 2.128957459987808 -1.650567792556748 1.5946531359659428 -1.628147990945667 1.0970790733824556 -1.779596474057814 C 2.0020449588348117 -2.1761873239660394 2.205200565773095 -2.787987032133292 2.5644652180429004 -3.1441411679332303 C 2.949391631189123 -3.5259570646095852 3.21339671656921 -3.5179863661555473 3.526003621790988 -3.7965719974881385 C 3.8001178856981443 -4.040941947652182 3.791369558126642 -4.23165548871099 3.9704186624234468 -4.5081026399705495 C 4.021749830283968 -4.58678882292922 4.0773694918424574 -4.6625925156950565 4.137025700840772 -4.735170342270948 C 4.3339602748393204 -4.977207405082587 4.576386152209691 -5.15742295305559 4.749991852684229 -5.376714364181316 C 5.039658698940727 -5.743172085787696 4.973754631235389 -6.026229084545721 5.279946096238064 -5.951187874710147 C 5.4192048248429545 -5.904161556938056 5.555870772679776 -5.849780709698143 5.689367826584489 -5.788274574600792 C 5.9527896901264805 -5.6922373785936 6.060880137454412 -5.792162720188122 6.214267480874801 -6.0097044657995475 C 6.475550864343749 -6.379078296596427 6.795156431622733 -7.053477148719782 7.057217444209153 -7.499253040307806 C 7.134021701421661 -7.636549532524484 7.222065118602707 -7.767249140008896 7.320444900471773 -7.890011671835033 C 7.497161117416172 -8.101721199065455 7.719563045011771 -8.230613225285628 7.914359138937286 -7.98371598048982 C 7.985901017744259 -7.893316595584267 8.054332380081366 -7.774922562449899 8.12315255697721 -7.68685606489675 C 8.238436073641704 -7.539495347136732 8.259237652533947 -7.6312555829978495 8.377242871109583 -7.602677712930932 C 8.429149614700513 -7.590041239772092 8.477168212704107 -7.539495347136727 8.514688817621895 -7.441902892894606 C 8.59653428223531 -7.228054885591151 8.61461415921642 -6.990294782925581 8.713567464414112 -6.755839604009245 C 8.898643194371285 -6.316867967199059 9.138736184389254 -6.388215438726665 9.304760000968484 -6.104769625409904 C 9.43870661645219 -5.87614666487457 9.320312583317827 -5.681739385507791 9.518608008271936 -5.463225603499534 C 9.613478760602927 -5.358634487200209 9.72740142631186 -5.371270960359048 9.871457220322641 -5.571121643548097 C 9.929779404132677 -5.662298657571114 10.282434208904009 -6.30228742124655 10.493560514296329 -6.325421887491197 C 10.562177472969047 -6.3303434948071615 10.628427538622036 -6.299279575134316 10.668527065726437 -6.243382015598419 C 10.73384791159367 -6.167563176645375 10.79586383371167 -6.0779414208572895 10.868960970753582 -5.991818996097807 C 11.031291049024844 -5.800911047759628 11.057730439018723 -5.408597157997471 11.325040448148044 -5.132733228576011 C 11.4166062767298 -5.038445698083125 11.461125543704789 -5.048749283889563 11.522752651264058 -5.062552200724605 C 11.63086121963882 -5.106363869545934 11.754593850955265 -5.0613701854308655 11.809308981050686 -4.958349898984011 C 11.941117116461363 -4.736725600505883 12.055039782170295 -4.511213156440419 12.189180804933374 -4.29211615259406 C 12.314315522870897 -4.0754369749092545 12.460503739000618 -3.871619996519044 12.625625147111787 -3.6836213681760457 C 12.74343595840806 -3.5809743246703842 12.920929804469932 -3.622577482454875 13.007441043788146 -3.5877785794482193 C 13.070040187744251 -3.562700040409908 13.161411609046635 -3.406007773240283 13.207291726977191 -3.343603036563546 Z M 12.436466864287928 -3.5314004684318556 C 12.205705423679555 -3.7582737634528867 11.677112031081286 -4.8339292401892715 11.565327845445392 -4.83179076011624 C 11.41369386492169 -4.789492647355543 11.25144896426577 -4.841738412158936 11.15299000590846 -4.964570931923747 C 11.01162190999319 -5.119701228050706 10.90410121985798 -5.302565850066377 10.837272584216805 -5.501523837534794 C 10.801840041999363 -5.6186412219596935 10.751323984271277 -5.730652247762977 10.686995757266281 -5.834737914369451 C 10.522138384363256 -6.048585921672906 10.467121124302459 -6.054029325495177 10.326953475879014 -5.855539493261695 C 10.213363353326454 -5.643746995133466 10.073232206892474 -5.447302073302708 9.909949861637271 -5.270956804205793 C 10.24646886222116 -5.157617360334959 10.34250605822835 -5.331806282647594 10.558492545604842 -5.362133818228809 C 10.570195593151587 -5.2155291059106865 10.544440203717608 -5.068355452002264 10.483645743048635 -4.934437803621896 C 10.61760806354542 -4.966966730019143 10.758905818368602 -4.928834371487932 10.858314181225655 -4.833325148061489 C 10.957722544082698 -4.737815924635045 11.00147518759882 -4.598156200768155 10.974329716170384 -4.463000151157457 C 11.351674245421306 -4.624552600311253 11.753514091872438 -4.390875050512385 11.665253187039921 -3.8618928433553785 C 11.717729493388024 -3.9003450430646236 11.76317506549271 -3.9475663466408326 11.799588617082366 -4.001477269940727 C 11.97001901230134 -3.7949153960560773 12.188774292594278 -3.633586715595837 12.436466864287933 -3.531789282990589 Z M 9.553795725837329 -5.17122586989063 C 9.471480614487627 -5.1915659633761555 9.397466698785504 -5.23685704757186 9.341891791327534 -5.300895525228272 C 9.23155344520723 -5.422284107338983 9.165685241473689 -5.577530185857675 9.155066395856059 -5.741228012994023 C 9.154144535234066 -5.823419355636373 9.135928821398807 -5.904495841943146 9.101604394030186 -5.9791825229389755 C 9.066918624900346 -6.036380804791605 9.018975578639399 -6.084390531228156 8.961825560165483 -6.119155764083044 C 8.881359206352936 -6.1700138827020865 8.805566861648042 -6.227915330588225 8.735341079703188 -6.2921782427194755 C 8.632524083345757 -6.396274056513915 8.55167063068048 -6.519967278048451 8.497580977037615 -6.65591426241472 C 8.449718353969065 -6.774748971819786 8.411934984548962 -6.897398601297091 8.384630347725523 -7.0225663913004635 C 8.361107066922141 -7.121519696498153 8.339722266191801 -7.223000296327613 8.306867435978809 -7.318648677776068 C 8.30336810495021 -7.328952263582506 8.299674366642236 -7.339061442109578 8.295786221054907 -7.349365027916017 C 8.294036555540607 -7.353836395341451 8.291509260908839 -7.360446242839925 8.288398744438968 -7.3670560903383935 C 8.274807692696207 -7.36500379734029 8.261113412505091 -7.363705761303217 8.247378808492574 -7.3631679447510585 C 8.121167589573172 -7.364758150833875 8.004242116564194 -7.429797945195117 7.93632716150573 -7.536190423387491 C 7.862063580787618 -7.631255582997847 7.802769360580752 -7.737985179370207 7.728311372583279 -7.832272709863094 C 7.722090339643539 -7.840243408317132 7.686708214798785 -7.880485715146056 7.673099705243115 -7.881457751542889 C 7.6705724106113475 -7.881457751542889 7.857592213362188 -7.115298663558415 7.372740458621446 -7.103828634075776 C 7.621912996090108 -7.0066916109140855 7.822132785988227 -6.814307116777172 7.9291340921691615 -6.569208615817133 C 8.308033879655015 -6.751562643863172 8.240185739156011 -6.293150279116307 7.685347363843223 -6.240854720966643 C 8.097816500247735 -5.960151095274716 8.32901010552039 -5.480567053558101 8.291703668188202 -4.983039623463586 C 8.342832782661668 -5.2715400260438825 8.490971129539155 -5.445534541077153 8.566984375771563 -5.162671949598489 C 8.590896471133675 -5.2966185650822 8.644747287518276 -5.368160443889176 8.703069471328309 -5.361550596390705 C 8.913223740323794 -5.337249686469857 8.865788364158298 -4.592864213774462 9.054752239702811 -4.337801863245247 C 9.058984797314647 -4.409610486762311 9.075900184901425 -4.480102238145321 9.104714910500073 -4.5460120594470625 C 9.303147069502566 -4.155842093502729 9.603502146122883 -3.826667440083008 9.973909856548943 -3.593416390549847 C 9.558967194827106 -4.001363123562578 9.309669172277651 -4.548433784157229 9.274043650828537 -5.129233897547403 C 9.405624276473855 -5.090924072385388 9.546829301945728 -5.103842977814688 9.669273649781202 -5.165393651509623 C 9.630689953419171 -5.161587618112392 9.5917430231444 -5.164149051975322 9.553990133116695 -5.17297553540493 Z M 6.0601025083369455 -5.554791432081285 C 5.912169496519481 -5.496802022619986 5.74714480840181 -5.500654466527655 5.602078958148816 -5.56548383244646 C 5.478824743030285 -5.610391913980182 5.341573203797335 -5.690682120358666 5.218124581399432 -5.7210096559398815 C 5.246508044186978 -5.613696837729419 5.5260657119164085 -5.193777114297177 4.965395118222615 -4.904499082599411 C 5.659817920120752 -4.730504567566143 4.569387490152489 -3.671956931414033 4.37128647247774 -3.0554914485419804 C 4.706833436664801 -3.5998318307689585 5.104979544807961 -3.9137995869463085 5.4716316736937065 -4.343050859788155 C 5.477430157741827 -4.81438563691801 5.693019500195682 -5.258606586179096 6.059713693778238 -5.554791432081303 Z M 4.298383742715205 -4.3632692168422995 C 4.357760308097081 -4.312398775543047 4.432722106845844 -4.28331935864508 4.510870899063097 -4.280840530390785 C 4.414170554353763 -4.1804384514950135 4.293867086894743 -4.10585030167042 4.160937796202878 -4.063882006617457 C 4.279118523334581 -4.065315683473324 4.396294858489251 -4.085796925248258 4.5079547898725805 -4.124537077779894 C 4.399438487080397 -3.932428263164951 4.3363297671308985 -3.718031515939245 4.323462281753502 -3.497768009101395 C 4.501733756932845 -3.9143828087844064 5.079901005769644 -4.47174847872896 4.8578878927327835 -4.74761240815042 C 4.777249975932448 -4.50968844719803 4.549595896687735 -4.353250451137276 4.298578149994562 -4.363269216842298 Z M 3.5565255646515728 -3.078042692948527 C 3.675606910327044 -3.081201063280374 3.794655794808014 -3.07063343627439 3.9113188494959488 -3.0465487136911085 C 3.7138271825439473 -2.8977758508151688 3.541299232731253 -2.718488532866033 3.400222112040684 -2.5154280264610716 C 3.6188868950987043 -2.7385952686484005 3.8895754558820554 -2.903934406836651 4.187960408034872 -2.9965860428938464 C 4.018048445868308 -3.085235762285098 4.179600895022098 -3.2401783639404202 4.175518342155398 -3.361877320824025 C 4.088035066440348 -3.1812729582922863 3.7627916880597287 -3.1725246307207815 3.5565255646515728 -3.078042692948527 Z M 7.53409850049587 -7.778616300757867 C 7.521073212778289 -7.525886837581054 7.451475406764983 -7.315343754026836 7.184165397635661 -7.249050871762761 C 7.451280999485617 -7.222417074489513 7.631302140179255 -7.3145661249093665 7.53409850049587 -7.778616300757867 Z M 7.286229219303225 -6.374023707332892 C 7.830569601530204 -6.3934644352695695 7.825515012266669 -6.619560101173134 7.6112781904044775 -6.658830371605224 C 7.605057157464738 -6.551711960674128 7.225768555420155 -6.421070268939654 6.993840671135592 -6.462479019444776 C 7.165041924194009 -6.324030454304777 7.397927498788556 -6.289484768047787 7.601946640994875 -6.372274041818592 C 7.497520186343496 -6.353152873857818 7.39043733217027 -6.353746313320601 7.28622921930323 -6.37402370733289 Z M 7.441755042796647 -6.927306824410746 C 7.427563311402872 -6.8040526092922065 7.321028122309878 -6.701211158507181 7.160447709552922 -6.622281803084268 C 7.464306287203192 -6.700044714830981 7.575312843721624 -6.830297592006722 7.441755042796647 -6.927306824410746 Z M 7.497744339254282 -5.350858196025538 C 7.434010301825583 -5.395599601830576 7.364657835274741 -5.431746551880164 7.291478215846132 -5.458365421515367 C 7.51835151086716 -5.222743798922831 7.583089134896298 -4.589948104583966 7.344745810392628 -4.4365607611635784 C 7.503492866301848 -4.477285674296711 7.650159138956432 -4.555485464216634 7.7724418249995395 -4.66460049986081 C 7.794088885314235 -4.531257932524939 7.844217417133401 -4.404146298269208 7.91941372820082 -4.291921745314694 C 7.946951257125942 -4.370565827329967 7.990584631683966 -4.442603932821827 8.04752812530353 -4.503436865265748 C 8.02585033090987 -4.270086330906221 8.078372300377147 -4.035846511118872 8.197610544974678 -3.8340926024059305 C 8.201564699930065 -3.909012158367611 8.21846889899739 -3.9826802632524707 8.247573215771936 -4.05182875529672 C 8.293807680146093 -3.7323458362939173 8.498695755606832 -3.458015338114521 8.791913597998924 -3.322995864950671 C 8.610781545163704 -3.5824536332544854 8.554628836111576 -3.909108478806427 8.638720661857903 -4.214158833567982 C 8.57637144054836 -4.17323444287936 8.524017056157668 -4.1188204316915655 8.485527725716878 -4.054939271766591 C 8.39862717505711 -4.329238239877023 8.411923594827568 -4.625479716628218 8.52304833063467 -4.890890573043741 C 8.352480340893091 -4.883188345713071 8.199420921060526 -4.783826156744995 8.122958149697837 -4.631162447809723 C 8.059775783903639 -4.981095550669922 7.933799866873962 -5.2497664107548125 7.678931923624116 -5.357662450803373 L 7.938465641578769 -5.367966036609811 C 7.8422675504015205 -5.466037834415217 7.732786084270094 -5.5501285002722875 7.61322226319815 -5.61777939059612 C 7.706422477894721 -5.609366121876485 7.798603215132486 -5.592049683949047 7.888502970781507 -5.566067054284558 C 7.835812457921729 -5.6149395199601795 7.776998506763162 -5.656762774117382 7.713536419351408 -5.690487713079294 C 7.752750750123088 -5.713732392790101 7.796513660648772 -5.728253722191807 7.841845223733479 -5.733062907260619 C 7.594753571658306 -5.847374387528283 7.275925633496784 -5.836681987163111 7.1009590820666855 -6.07580294078425 C 7.159281265876716 -5.717121510352545 7.365352982005506 -5.592312036999072 7.497744339254278 -5.350663788746166 Z M 7.4619733998507956 -4.112678233738524 C 7.3949728939299355 -4.04933387396264 7.314961377736521 -4.0013667709710665 7.227518220934465 -3.9721217707563445 C 7.4626794200272935 -3.922549490255653 7.70370928790116 -3.9067732278554352 7.943325823562942 -3.9252696164289524 C 7.843448482544383 -4.0073733984201585 7.778591687586044 -4.124435394893739 7.761943831913737 -4.252651474882605 C 7.741584078254571 -4.213823090239102 7.7319220220790115 -4.170276739836748 7.733949183684919 -4.126481150573566 C 7.6941116485210985 -4.197632402701412 7.665643613170937 -4.27457481160864 7.649576424439732 -4.354520889270797 C 7.372294264922239 -4.217179364345176 7.0705122239463725 -4.136232791059555 6.761718379571657 -4.116371972046497 C 6.993275813991478 -4.077341763316157 7.229628076487931 -4.076094348597425 7.4615845852920675 -4.112678233738529 Z M 8.05938696934491 -3.693730546703118 C 8.023384357208805 -3.727050417989531 7.996598275994446 -3.7691045654960744 7.9816240575981965 -3.815818318145456 C 7.850892661794516 -3.8002790724550097 7.718911846202837 -3.7981944791189113 7.587754909601094 -3.8095972852057187 C 7.741679902500067 -3.7580081175424436 7.899538553983915 -3.7189985661049194 8.059775783903643 -3.692952917585651 Z M 10.2497737859704 -4.942408502075937 C 10.264543584515522 -4.8237657229045805 10.328628194785745 -4.716840409513187 10.426295595635438 -4.647881473835267 C 10.335692782917663 -4.7724575713886574 10.32076116123784 -4.936705409866786 10.387414139762079 -5.075577488442178 C 10.266269273689394 -5.038893982437489 10.137842244705132 -5.033278224793202 10.013957756098502 -5.059247276975372 C 10.081306680753011 -5.000745015834317 10.162587123100863 -4.960573462779366 10.249968193249773 -4.942602909355303 Z M 11.216366778982026 -3.9363508313528577 C 11.195309467761843 -3.85881269859554 11.159246460721542 -3.7861582888073873 11.110220404447768 -3.7225028240494025 C 11.198683935841393 -3.760044094889036 11.278191896265934 -3.815898437087278 11.343509139687898 -3.8863881605555983 C 11.341199359609785 -3.7364847277171345 11.299424634840152 -3.5898373391598595 11.2223934046424 -3.4612194405804493 C 11.483093566273247 -3.7203643439763683 11.574464987575636 -3.973093807153181 11.341176252335497 -4.212992389891787 C 11.266286419591633 -4.075251365613817 11.152034774137597 -3.9629625742582215 11.013016764764377 -3.890470713422297 C 11.08311899350906 -3.8917054670174274 11.152237987281396 -3.9071828302162075 11.21617237170266 -3.9359620167941216 Z M 11.701024126443407 -3.5533684910003025 C 11.699550515854158 -3.5380345017630193 11.696154135748614 -3.522946736294175 11.690914947916333 -3.50846040946658 C 11.720746373910034 -3.5180547429143028 11.74755285021648 -3.5352779039411937 11.768677859663047 -3.5584230802638395 C 11.98737033273859 -3.442555226145081 12.223935971121477 -3.3641600020920848 12.468544065383442 -3.3264951959792715 C 12.215261818378114 -3.4146020377724353 11.977731580478725 -3.5427200329035813 11.764984121355079 -3.7059782053032233 C 11.693323991534017 -3.621209820162406 11.608992610224556 -3.548026444158242 11.514976360089406 -3.4890196815299026 C 11.579373033408489 -3.501940472307056 11.641704960079629 -3.5235898613187517 11.700246497325946 -3.5533684910003025 Z M 14.118089830810565 -2.1997106047694244 C 14.342241423920454 -1.6376791601200669 13.571222153951819 -1.4588244631026308 12.341984926515671 -1.5301719346302374 C 13.770295208023395 -1.3283771786475222 14.701506076190265 -1.6106565482880848 14.118089830810565 -2.1997106047694244 Z M 4.901046308752216 -1.8857428485920735 C 4.089979139234015 -1.7288561741430826 3.97080747698218 -1.2000683742654452 4.36331577402371 -0.8691871847831871 C 4.110586310846893 -1.3001881231393364 4.33784842042666 -1.6287364252691914 4.901046308752216 -1.8857428485920735 Z M 4.628876117638725 -2.0885096409716235 C 3.3879744534405756 -1.8686350080077956 2.941420932735083 -1.113751542226595 3.3677560963864317 -0.8334162453796994 C 3.187151733854693 -1.373674074739978 3.754237767767588 -1.7622942261941672 4.628876117638725 -2.0885096409716235 Z M 6.309527047764528 -0.5246974857452553 C 5.32913113791786 -0.9152617099931133 5.294915456749312 -1.5744967943258592 6.46505287125795 -1.9545630254879125 C 5.024689338429485 -1.7006671186348994 5.087288482385588 -0.7537092608393214 6.310110269602624 -0.5248918930246234 Z" fill="#fffcf7" transform="matrix(1,0,0,1,0,0)" fill-rule="evenodd"></path></g></g></g><defs><clipPath id="SvgjsClipPath1061"><path d=" M 1.0982455170586558 -8.117857003252897 h 14.198341241273312 v 7.867857003252898 h -14.198341241273312 Z"></path></clipPath><clipPath id="SvgjsClipPath1060d7331401-ce0e-4b0c-bb25-b6476903292a"><path d=" M 1.0982455170586558 -8.117857003252897 L 15.296586758331967 -8.117857003252897 L 15.296586758331967 -0.2499999999999991 L 1.0982455170586558 -0.2499999999999991 Z"></path></clipPath></defs></svg>